<?xml version="1.0" encoding="UTF-8"?><svg xmlns="http://www.w3.org/2000/svg" viewBox="0 0 12000 3000"><defs><style>.cls-1,.cls-2{fill:#f5dcbd;}.cls-3{fill:#f3c6b0;}.cls-4{fill:#fff;}.cls-5{fill:#f4e5d7;}.cls-6,.cls-7{fill:#fcd0af;}.cls-8,.cls-9{fill:#efab50;}.cls-10{fill:#998c8a;}.cls-11,.cls-12{fill:#d7c4b1;}.cls-13,.cls-14{fill:#aeb0a4;}.cls-15,.cls-16{fill:#dbab77;}.cls-17,.cls-18{fill:#2c2d30;}.cls-19,.cls-20{fill:#5c4b60;}.cls-20,.cls-18,.cls-16,.cls-14,.cls-12,.cls-7,.cls-9,.cls-2{mix-blend-mode:multiply;}.cls-21{isolation:isolate;}</style></defs><g class="cls-21"><g id="_лой_1"><rect class="cls-4" width="12000" height="3000"/><g><ellipse class="cls-5" cx="6000" cy="2513.5" rx="541" ry="138.5"/><g><path class="cls-1" d="M6140.59,2343.43l-87.78,3.87-21.95-36.14,3.62-65.06,1.55-27.89,105.85-23.23s-2.27,32.49-3.91,50.06c-.51,5.4-.95,9.39-1.26,10.61-1.29,5.16,5.16,15.49,5.16,25.81,0,10.33-5.16,7.75-1.29,16.78,3.87,9.04,0,45.19,0,45.19Z"/><path class="cls-1" d="M5973.86,2224.77c-4.15,31.46-15,90.09-13.99,94.13,1.29,5.16-2.58,19.36,0,20.65,2.58,1.3,7.75,25.81-2.58,40.01-10.33,14.21-80.03,28.41-86.48,25.82-6.46-2.58-10.33-27.11-7.75-36.14,2.58-9.03-2.58-19.36-3.87-25.81-1.3-6.46,1.29-32.27-2.58-40.02-2.31-4.62-1.87-46.02-1.13-78.65,.5-22.06,1.13-40.1,1.13-40.1,0,0,117.46,9.04,118.75,21.95,.28,2.8-.35,9.44-1.5,18.18Z"/><path class="cls-13" d="M5824.34,1953.59s-21.58,159.67-18.07,178.14c3.45,18.14,7.51,76.36,6.22,88.48-1.29,12.12,107.37-32.97,138.35-20.07,30.98,12.91,33.56,33.56,83.9,34.85,50.34,1.29,65.83-10.33,96.81-2.58,30.98,7.75,43.89,5.16,43.89,2.58s36.14-259.46,36.14-259.46l-387.25-21.94Z"/><path class="cls-8" d="M6358.74,1486.31s-1.29,89.07,0,105.85c1.3,16.78-33.56,265.92-37.43,294.31-3.88,28.4-23.24,51.64-37.44,71-1.23,1.68-2.84,3.58-4.84,5.65-15.01,15.69-51.18,41.23-102.96,57.77-19.94,6.37-42.2,11.41-66.46,14.03-67.15,7.26-189.78-10.36-256.72-30.43-10.26-3.08-19.22-6.22-26.47-9.34-12.72-5.46-20.16-10.85-20.16-15.73,0-25.82-43.89-175.56-52.92-212.99-9.04-37.43,6.45-216.86,6.45-216.86,0,0-14.2-36.14-34.86-42.59-20.65-6.46-45.18-20.66-89.07-50.34-43.88-29.69-66.51-169.58-73.57-237.52-6.19-59.6,55.51-290.43,58.09-309.8,2.58-19.36,46.46-136.83,55.51-151.02,9.03-14.21,105.85-68.42,105.85-68.42l433.72,25.81s63.24,33.56,86.49,68.42c23.23,34.85,98.1,307.21,107.13,331.74,9.04,24.53-1.29,69.7,0,98.1,1.3,28.41,23.24,54.22,28.41,91.65,5.16,37.44-21.95,90.36-20.66,107.14,1.3,16.78,5.16,72.29,5.16,72.29l-63.25,1.29Z"/><path class="cls-1" d="M6279.03,1963.12c-15.01,15.69-51.18,41.23-102.96,57.77-10.89-40.35-34.32-380.68-38.06-409.37-3.88-29.68-23.24-296.88-29.69-331.74-6.45-34.85-18.07-160.06-23.23-210.41-5.16-50.34-37.44-112.3-49.06-154.89-11.62-42.6-45.18-127.79-45.18-127.79,0-28.4,91.65-40.02,95.52-34.86,3.88,5.16,29.69,61.97,37.44,89.07,7.75,27.11,72.29,240.1,74.87,264.62,2.58,24.53,1.29,77.45,7.74,120.06,6.46,42.59,11.63,140.7,9.04,172.97-2.58,32.27,23.23,73.57,33.56,94.23,10.32,20.65-1.3,90.35-1.3,144.57,0,54.21,14.2,123.91,18.08,152.31,3.05,22.41,12.53,123.52,13.23,173.46Z"/><path class="cls-4" d="M6109.61,840.25c0,12.48-10.11,22.59-22.59,22.59-12.48,0-22.59-10.11-22.59-22.59,0-12.48,10.11-22.59,22.59-22.59,12.48,0,22.59,10.11,22.59,22.59Z"/><circle class="cls-4" cx="6145.11" cy="1059.69" r="22.59"/><circle class="cls-4" cx="6174.8" cy="1313.99" r="22.59"/><circle class="cls-4" cx="6204.49" cy="1597.97" r="22.59"/><path class="cls-4" d="M6243.86,1845.81c0,12.48-10.11,22.59-22.59,22.59-12.48,0-22.59-10.11-22.59-22.59s10.11-22.59,22.59-22.59c12.48,0,22.59,10.11,22.59,22.59Z"/><path class="cls-6" d="M6353.58,1487.6c-.62,1.72-5.16,100.69,0,104.56,5.16,3.87,18.07-32.27,19.36-47.76,1.29-15.49,9.04-18.07,12.91-9.04,3.87,9.04-7.75,50.34-9.04,56.8s-28.4,29.69-25.82,34.85c2.58,5.16,14.2,2.58,28.4-6.45,14.2-9.04,25.82-19.36,28.4-25.82,2.58-6.45,12.91-40.02,14.2-56.8,1.29-16.78,3.87-54.22-3.87-59.38-7.75-5.16-59.38-5.16-64.54,9.04Z"/><path class="cls-17" d="M5927.6,1559.89c11.62,1.29,43.89-2.58,45.18,3.87,1.29,6.45,1.29,49.05-1.29,51.63-2.58,2.58-38.73,3.87-38.73,0s-5.16-55.51-5.16-55.51Z"/><path class="cls-13" d="M6025.71,2315.03s-24.53,120.05-23.24,135.54c1.29,15.49,41.31,28.4,41.31,28.4l9.04-20.65s24.22,112.37,77.14,126.57c52.92,14.2,80.34,1.22,97.12-11.69,16.78-12.91,7.75-69.71-10.33-98.1-18.07-28.4-61.96-90.36-64.54-108.43-2.58-18.07,11.18-54.22-9.9-51.63-21.08,2.58-61.09-9.04-64.97,0-3.87,9.04-7.75,24.53-16.78,19.36-9.04-5.16-30.98-51.63-34.85-19.36Z"/><path class="cls-13" d="M5861.36,2391.29c.18-3.73,2.67-6.93,6.24-8,13.67-4.11,45.14-11.83,56.13,.16,14.2,15.49,38.73-28.4,42.6-20.65,3.87,7.75,24.53,98.1,23.24,111.01-1.29,12.91-22.59,26.46-22.59,26.46l-8.39-22.59s10.33,90.36-23.24,111.01c-33.56,20.65-82.61,33.56-108.43,5.16-25.82-28.4,19.36-94.23,20.65-108.43,1.14-12.5,12.78-73.56,13.79-94.13Z"/><path class="cls-1" d="M5852.09,584.66s-79.39,93.59-76.8,106.49c2.58,12.91,21.94,109.72,20.65,125.21-1.29,15.49-2.58,23.24,0,24.53,2.58,1.29,167.81-23.24,196.21-40.02,28.4-16.78,40.86-40.88,40.86-40.88l-180.91-175.34Z"/><path class="cls-1" d="M6080.57,766.67s174.91,52.28,174.91,48.41-25.82-101.98-33.56-112.3c-7.75-10.33-40.02-6.45-47.76-18.07-7.75-11.62-47.12-65.19-49.7-60.02-2.58,5.16-43.89,141.99-43.89,141.99Z"/><path class="cls-13" d="M6134.13,693.74c0,18.08-16.78,27.11-23.23,33.56-6.45,6.46-33.56,51.64-36.14,54.22-2.58,2.58-7.75,5.16-19.36,0-1.06-.47-2.42-1.09-4.01-1.84,0,0,0,0-.03-.02-15.82-7.44-55.01-27.25-64.37-34.28-10.33-7.75-64.55-46.47-71-49.06-6.45-2.58-5.16-18.07-14.2-16.78-5.48,.79-12.39-11.25-18.41-22.58-3.92-7.34-7.45-14.38-9.99-17.43-6.46-7.75-2.58-12.91-2.58-16.78s-1.3-10.33-16.78-24.53c-15.49-14.2-20.66-68.42-20.66-99.4,0-30.98,0-73.57,19.36-117.46,19.36-43.89,72.68-76.15,89.07-78.74,83.07-13.14,99.4,27.1,116.18,42.59,16.78,15.49,38.73,64.54,46.47,82.62,7.75,18.07,23.23,65.83,27.11,104.55,3.87,38.73-18.08,87.78-18.08,87.78,6.45-1.3,15.49,5.16,18.08,11.62,2.57,6.45,2.57,43.89,2.57,61.96Z"/><polygon class="cls-6" points="6091.54 674.38 5961.16 674.38 5959.74 643.17 5958.58 617.58 6083.79 558.2 6086.48 598.54 6091.54 674.38"/><path class="cls-7" d="M6086.48,598.54c-11.22,28.06-34.61,56.47-80.14,56.47-18.69,0-34.01-4.44-46.6-11.85l-1.16-25.58,125.21-59.38,2.68,40.34Z"/><path class="cls-6" d="M5895.33,378.78c-2.58,0-2.58,94.23,5.16,141.99,7.75,47.76,25.82,129.08,105.85,129.08,80.03,0,91.65-87.78,89.07-107.14-2.58-19.36-23.24-111.01-29.69-131.67-6.45-20.65-42.6-98.1-101.98-85.2-59.38,12.91-68.41,52.92-68.41,52.92Z"/><path class="cls-4" d="M5895.18,376.36c-1.25,4.74,1.98,8.32,5.97,6.25,7.06-3.66,15.3-8.65,17.41-12.87,3.87-7.75,19.36,5.16,28.4-2.58,9.77-8.38,12-18.27,21.37-11.69,6.9,4.84,15.48,6.48,23.62,4.32,6.27-1.66,10.34,3.22,19.55,.92,10.33-2.58,19.63,8.01,28.67,9.3,9.04,1.29-12.54-33.18-37.06-40.92-26.88-8.49-48.57-8.26-60.67-1.29-21.3,12.26-41.4,26.23-47.26,48.57Z"/><path class="cls-13" d="M5952.77,654.37s61.96,3.87,74.87,16.78c12.91,12.91,50.34-24.53,63.9-21.3,13.55,3.23,10.97,39.37-.65,49.7-11.62,10.33-119.81,2.68-119.81,2.68l-18.31-47.86Z"/><polygon class="cls-4" points="5806.26 1674.77 5838.53 2624.18 5863.06 2624.18 5833.37 1677.36 5806.26 1674.77"/><path class="cls-17" d="M5830.39,2621.95c6.92,1.69,21.15,3.78,37.6-1.64,2.36-.78,4.86,.72,5.23,3.18,2.28,15.35,9.01,62.43,6.87,70.24-2.57,9.36-51.61,7.05-56.75,.67-4.33-5.36,.62-52.85,2.12-68.97,.23-2.43,2.56-4.06,4.93-3.48Z"/><path class="cls-17" d="M5801.1,1609.82c-3.87,10.33-3.23,78.02-.65,81.89,2.58,3.87,34.08,4.43,37.95,1.85,3.87-2.58-2.45-66.96-2.45-66.96l-34.85-16.78Z"/><path class="cls-6" d="M5794.46,1568.9s3.74,64.45,19.8,70.68c16.06,6.23,24.27,3.5,24.27,3.5,0,0,16.78,10.25,30.85,3.15,0,0,12.76,10.97,34.68,3.7,0,0,7.11,4.94,16.24,4.95,9.13,.01,25.22-21.14,25.05-28.99-.17-7.85-8.89-37.8-10.15-47.11-1.26-9.31-13.26-57.22-28.12-60.4-14.87-3.19-112.61,50.52-112.61,50.52Z"/><path class="cls-9" d="M5806.01,1066.03s-40.72,71.27-30.54,140.69c10.18,69.42,42.58,147.17,42.58,147.17,0,0-19.44-77.75-23.14-134.21-3.7-56.46,11.11-153.64,11.11-153.64Z"/><path class="cls-9" d="M6321.55,1011.42s35.17,183.26,38.87,255.46c4.41,86.09-38.87-255.46-38.87-255.46Z"/><path class="cls-14" d="M6051.36,779.66c-15.82-7.44-55.01-27.25-64.37-34.28-10.33-7.75-64.55-46.47-71-49.06-6.45-2.58-5.16-18.07-14.2-16.78-5.48,.79-12.39-11.25-18.41-22.58,5.53,5.77,13.53,14.78,16.11,14.78,3.7,0,13.88,11.11,16.66,18.51,2.76,7.35,133.17,88.15,135.21,89.41Z"/><path class="cls-14" d="M6098.49,677.29s-34.58,23.47-35.8,30.25c0,0,32.1-28.4,35.8-30.25Z"/><path class="cls-2" d="M6129.88,2256.92s-18.6,.51-19.28,2.47c-.68,1.95,19.28-2.47,19.28-2.47Z"/><path class="cls-2" d="M6106.9,2292.04s27.98,3.64,29.47,1.06c1.5-2.58-29.47-1.06-29.47-1.06Z"/><path class="cls-2" d="M5924.91,2347.64s27.98-3.59,28.77-6.47c.79-2.88-28.77,6.47-28.77,6.47Z"/><path class="cls-2" d="M5896.18,2300.13s-33.9,3.74-35.18,6.29c-1.27,2.55,35.18-6.29,35.18-6.29Z"/></g></g><g><ellipse class="cls-5" cx="4020.38" cy="2513.5" rx="541" ry="138.5"/><g><path class="cls-1" d="M4160.97,2343.43l-87.78,3.87-21.95-36.14,3.62-65.06,1.55-27.89,105.85-23.23s-2.27,32.49-3.91,50.06c-.51,5.4-.95,9.39-1.26,10.61-1.29,5.16,5.16,15.49,5.16,25.81,0,10.33-5.16,7.75-1.29,16.78,3.87,9.04,0,45.19,0,45.19Z"/><path class="cls-1" d="M3994.24,2224.77c-4.15,31.46-15,90.09-13.99,94.13,1.29,5.16-2.58,19.36,0,20.65,2.58,1.3,7.75,25.81-2.58,40.01-10.33,14.21-80.03,28.41-86.48,25.82-6.46-2.58-10.33-27.11-7.75-36.14,2.58-9.03-2.58-19.36-3.87-25.81-1.3-6.46,1.29-32.27-2.58-40.02-2.31-4.62-1.87-46.02-1.13-78.65,.5-22.06,1.13-40.1,1.13-40.1,0,0,117.46,9.04,118.75,21.95,.28,2.8-.35,9.44-1.5,18.18Z"/><path class="cls-3" d="M3844.71,1953.59s-21.58,159.67-18.07,178.14c3.45,18.14,7.51,76.36,6.22,88.48-1.29,12.12,107.37-32.97,138.35-20.07,30.98,12.91,33.56,33.56,83.9,34.85,50.34,1.29,65.83-10.33,96.81-2.58,30.98,7.75,43.89,5.16,43.89,2.58s36.14-259.46,36.14-259.46l-387.25-21.94Z"/><path class="cls-13" d="M4379.11,1486.31s-1.29,89.07,0,105.85c1.3,16.78-33.56,265.92-37.43,294.31-3.88,28.4-23.24,51.64-37.44,71-1.23,1.68-2.84,3.58-4.84,5.65-15.01,15.69-51.18,41.23-102.96,57.77-19.94,6.37-42.2,11.41-66.46,14.03-67.15,7.26-189.78-10.36-256.72-30.43-10.26-3.08-19.22-6.22-26.47-9.34-12.72-5.46-20.16-10.85-20.16-15.73,0-25.82-43.89-175.56-52.92-212.99-9.04-37.43,6.45-216.86,6.45-216.86,0,0-14.2-36.14-34.86-42.59-20.65-6.46-45.18-20.66-89.07-50.34-43.88-29.69-66.51-169.58-73.57-237.52-6.19-59.6,55.51-290.43,58.09-309.8,2.58-19.36,46.46-136.83,55.51-151.02,9.03-14.21,105.85-68.42,105.85-68.42l433.72,25.81s63.24,33.56,86.49,68.42c23.23,34.85,98.1,307.21,107.13,331.74,9.04,24.53-1.29,69.7,0,98.1,1.3,28.41,23.24,54.22,28.41,91.65,5.16,37.44-21.95,90.36-20.66,107.14,1.3,16.78,5.16,72.29,5.16,72.29l-63.25,1.29Z"/><path class="cls-1" d="M4299.4,1963.12c-15.01,15.69-51.18,41.23-102.96,57.77-10.89-40.35-34.32-380.68-38.06-409.37-3.88-29.68-23.24-296.88-29.69-331.74-6.45-34.85-18.07-160.06-23.23-210.41-5.16-50.34-37.44-112.3-49.06-154.89-11.62-42.6-45.18-127.79-45.18-127.79,0-28.4,91.65-40.02,95.52-34.86,3.88,5.16,29.69,61.97,37.44,89.07,7.75,27.11,72.29,240.1,74.87,264.62,2.58,24.53,1.29,77.45,7.74,120.06,6.46,42.59,11.63,140.7,9.04,172.97-2.58,32.27,23.23,73.57,33.56,94.23,10.32,20.65-1.3,90.35-1.3,144.57,0,54.21,14.2,123.91,18.08,152.31,3.05,22.41,12.53,123.52,13.23,173.46Z"/><path class="cls-4" d="M4129.98,840.25c0,12.48-10.11,22.59-22.59,22.59-12.48,0-22.59-10.11-22.59-22.59s10.11-22.59,22.59-22.59c12.48,0,22.59,10.11,22.59,22.59Z"/><circle class="cls-4" cx="4165.48" cy="1059.69" r="22.59"/><circle class="cls-4" cx="4195.17" cy="1313.99" r="22.59"/><circle class="cls-4" cx="4224.86" cy="1597.97" r="22.59"/><path class="cls-4" d="M4264.23,1845.81c0,12.48-10.11,22.59-22.59,22.59-12.48,0-22.59-10.11-22.59-22.59s10.11-22.59,22.59-22.59c12.48,0,22.59,10.11,22.59,22.59Z"/><path class="cls-6" d="M4373.95,1487.6c-.62,1.72-5.16,100.69,0,104.56,5.16,3.87,18.07-32.27,19.36-47.76,1.29-15.49,9.04-18.07,12.91-9.04,3.87,9.04-7.75,50.34-9.04,56.8-1.29,6.45-28.4,29.69-25.82,34.85,2.58,5.16,14.2,2.58,28.4-6.45,14.2-9.04,25.82-19.36,28.4-25.82,2.58-6.45,12.91-40.02,14.2-56.8,1.29-16.78,3.87-54.22-3.87-59.38-7.75-5.16-59.38-5.16-64.54,9.04Z"/><path class="cls-17" d="M3947.98,1559.89c11.62,1.29,43.89-2.58,45.18,3.87,1.29,6.45,1.29,49.05-1.29,51.63-2.58,2.58-38.73,3.87-38.73,0s-5.16-55.51-5.16-55.51Z"/><path class="cls-10" d="M4046.08,2315.03s-24.53,120.05-23.24,135.54,41.31,28.4,41.31,28.4l9.04-20.65s24.22,112.37,77.14,126.57c52.92,14.2,80.34,1.22,97.12-11.69,16.78-12.91,7.75-69.71-10.33-98.1-18.07-28.4-61.96-90.36-64.54-108.43-2.58-18.07,11.18-54.22-9.9-51.63-21.08,2.58-61.09-9.04-64.97,0-3.87,9.04-7.75,24.53-16.78,19.36-9.04-5.16-30.98-51.63-34.85-19.36Z"/><path class="cls-10" d="M3881.73,2391.29c.18-3.73,2.67-6.93,6.24-8,13.67-4.11,45.14-11.83,56.13,.16,14.2,15.49,38.73-28.4,42.6-20.65,3.87,7.75,24.53,98.1,23.24,111.01-1.29,12.91-22.59,26.46-22.59,26.46l-8.39-22.59s10.33,90.36-23.24,111.01c-33.56,20.65-82.61,33.56-108.43,5.16-25.82-28.4,19.36-94.23,20.65-108.43,1.14-12.5,12.78-73.56,13.79-94.13Z"/><path class="cls-1" d="M3872.46,584.66s-79.39,93.59-76.8,106.49c2.58,12.91,21.94,109.72,20.65,125.21-1.29,15.49-2.58,23.24,0,24.53,2.58,1.29,167.81-23.24,196.21-40.02s43.48-39.88,43.48-39.88l-183.54-176.34Z"/><path class="cls-1" d="M4100.94,766.67s174.91,52.28,174.91,48.41-25.82-101.98-33.56-112.3c-7.75-10.33-40.02-6.45-47.76-18.07-7.75-11.62-47.12-65.19-49.7-60.02-2.58,5.16-43.89,141.99-43.89,141.99Z"/><path class="cls-15" d="M4154.51,693.74c0,18.08-16.78,27.11-23.23,33.56-6.45,6.46-33.56,51.64-36.14,54.22-2.58,2.58-7.75,5.16-19.36,0-1.06-.47-2.42-1.09-4.01-1.84,0,0,0,0-.03-.02-15.82-7.44-55.01-27.25-64.37-34.28-10.33-7.75-64.55-46.47-71-49.06-6.45-2.58-5.16-18.07-14.2-16.78-5.48,.79-12.39-11.25-18.41-22.58-3.92-7.34-7.45-14.38-9.99-17.43-6.46-7.75-2.58-12.91-2.58-16.78s-1.3-10.33-16.78-24.53c-15.49-14.2-20.66-68.42-20.66-99.4,0-30.98,0-73.57,19.36-117.46,19.36-43.89,72.68-76.15,89.07-78.74,83.07-13.14,99.4,27.1,116.18,42.59,16.78,15.49,38.73,64.54,46.47,82.62,7.75,18.07,23.23,65.83,27.11,104.55,3.87,38.73-18.08,87.78-18.08,87.78,6.45-1.3,15.49,5.16,18.08,11.62,2.57,6.45,2.57,43.89,2.57,61.96Z"/><polygon class="cls-6" points="4111.91 674.38 3981.54 674.38 3980.12 643.17 3978.96 617.58 4104.17 558.2 4106.85 598.54 4111.91 674.38"/><path class="cls-7" d="M4106.85,598.54c-11.22,28.06-34.61,56.47-80.14,56.47-18.69,0-34.01-4.44-46.6-11.85l-1.16-25.58,125.21-59.38,2.68,40.34Z"/><path class="cls-6" d="M3915.71,378.78c-2.58,0-2.58,94.23,5.16,141.99,7.75,47.76,25.82,129.08,105.85,129.08,80.03,0,91.65-87.78,89.07-107.14-2.58-19.36-23.24-111.01-29.69-131.67-6.45-20.65-42.6-98.1-101.98-85.2-59.38,12.91-68.41,52.92-68.41,52.92Z"/><path class="cls-4" d="M3915.56,376.36c-1.25,4.74,1.98,8.32,5.97,6.25,7.06-3.66,15.3-8.65,17.41-12.87,3.87-7.75,19.36,5.16,28.4-2.58,9.77-8.38,12-18.27,21.37-11.69,6.9,4.84,15.48,6.48,23.62,4.32,6.27-1.66,10.34,3.22,19.55,.92,10.33-2.58,19.63,8.01,28.67,9.3,9.04,1.29-12.54-33.18-37.06-40.92-26.88-8.49-48.57-8.26-60.67-1.29-21.3,12.26-41.4,26.23-47.26,48.57Z"/><path class="cls-15" d="M3973.15,654.37s61.96,3.87,74.87,16.78c12.91,12.91,50.34-24.53,63.9-21.3,13.55,3.23,10.97,39.37-.65,49.7-11.62,10.33-119.81,2.68-119.81,2.68l-18.31-47.86Z"/><polygon class="cls-4" points="3826.64 1674.77 3858.91 2624.18 3883.44 2624.18 3853.75 1677.36 3826.64 1674.77"/><path class="cls-17" d="M3850.76,2621.95c6.92,1.69,21.15,3.78,37.6-1.64,2.36-.78,4.86,.72,5.23,3.18,2.28,15.35,9.01,62.43,6.87,70.24-2.57,9.36-51.61,7.05-56.75,.67-4.33-5.36,.62-52.85,2.12-68.97,.23-2.43,2.56-4.06,4.93-3.48Z"/><path class="cls-17" d="M3821.48,1609.82c-3.87,10.33-3.23,78.02-.65,81.89,2.58,3.87,34.08,4.43,37.95,1.85,3.87-2.58-2.45-66.96-2.45-66.96l-34.85-16.78Z"/><path class="cls-6" d="M3814.83,1568.9s3.74,64.45,19.8,70.68c16.06,6.23,24.27,3.5,24.27,3.5,0,0,16.78,10.25,30.85,3.15,0,0,12.76,10.97,34.68,3.7,0,0,7.11,4.94,16.24,4.95,9.13,.01,25.22-21.14,25.05-28.99-.17-7.85-8.89-37.8-10.15-47.11-1.26-9.31-13.26-57.22-28.12-60.4-14.87-3.19-112.61,50.52-112.61,50.52Z"/><path class="cls-14" d="M3826.38,1066.03s-40.72,71.27-30.54,140.69c10.18,69.42,42.58,147.17,42.58,147.17,0,0-19.44-77.75-23.14-134.21-3.7-56.46,11.11-153.64,11.11-153.64Z"/><path class="cls-14" d="M4341.92,1011.42s35.17,183.26,38.87,255.46c4.41,86.09-38.87-255.46-38.87-255.46Z"/><path class="cls-16" d="M4071.73,779.66c-15.82-7.44-55.01-27.25-64.37-34.28-10.33-7.75-64.55-46.47-71-49.06-6.45-2.58-5.16-18.07-14.2-16.78-5.48,.79-12.39-11.25-18.41-22.58,5.53,5.77,13.53,14.78,16.11,14.78,3.7,0,13.88,11.11,16.66,18.51,2.76,7.35,133.17,88.15,135.21,89.41Z"/><path class="cls-16" d="M4118.86,677.29s-34.58,23.47-35.8,30.25c0,0,32.1-28.4,35.8-30.25Z"/><path class="cls-2" d="M4150.25,2256.92s-18.6,.51-19.28,2.47c-.68,1.95,19.28-2.47,19.28-2.47Z"/><path class="cls-2" d="M4127.27,2292.04s27.98,3.64,29.47,1.06c1.5-2.58-29.47-1.06-29.47-1.06Z"/><path class="cls-2" d="M3945.29,2347.64s27.98-3.59,28.77-6.47c.79-2.88-28.77,6.47-28.77,6.47Z"/><path class="cls-2" d="M3916.55,2300.13s-33.9,3.74-35.18,6.29c-1.27,2.55,35.18-6.29,35.18-6.29Z"/></g></g><g><ellipse class="cls-5" cx="2040.75" cy="2513.5" rx="541" ry="138.5"/><g><path class="cls-1" d="M2181.34,2343.43l-87.78,3.87-21.95-36.14,3.62-65.06,1.55-27.89,105.85-23.23s-2.27,32.49-3.91,50.06c-.51,5.4-.95,9.39-1.26,10.61-1.29,5.16,5.16,15.49,5.16,25.81s-5.16,7.75-1.29,16.78c3.87,9.04,0,45.19,0,45.19Z"/><path class="cls-1" d="M2014.61,2224.77c-4.15,31.46-15,90.09-13.99,94.13,1.29,5.16-2.58,19.36,0,20.65,2.58,1.3,7.75,25.81-2.58,40.01-10.33,14.21-80.03,28.41-86.48,25.82-6.46-2.58-10.33-27.11-7.75-36.14,2.58-9.03-2.58-19.36-3.87-25.81-1.3-6.46,1.29-32.27-2.58-40.02-2.31-4.62-1.87-46.02-1.13-78.65,.5-22.06,1.13-40.1,1.13-40.1,0,0,117.46,9.04,118.75,21.95,.28,2.8-.35,9.44-1.5,18.18Z"/><path class="cls-15" d="M1865.09,1953.59s-21.58,159.67-18.07,178.14c3.45,18.14,7.51,76.36,6.22,88.48-1.29,12.12,107.37-32.97,138.35-20.07,30.98,12.91,33.56,33.56,83.9,34.85,50.34,1.29,65.83-10.33,96.81-2.58,30.98,7.75,43.89,5.16,43.89,2.58s36.14-259.46,36.14-259.46l-387.25-21.94Z"/><path class="cls-11" d="M2399.49,1486.31s-1.29,89.07,0,105.85c1.3,16.78-33.56,265.92-37.43,294.31-3.88,28.4-23.24,51.64-37.44,71-1.23,1.68-2.84,3.58-4.84,5.65-15.01,15.69-51.18,41.23-102.96,57.77-19.94,6.37-42.2,11.41-66.46,14.03-67.15,7.26-189.78-10.36-256.72-30.43-10.26-3.08-19.22-6.22-26.47-9.34-12.72-5.46-20.16-10.85-20.16-15.73,0-25.82-43.89-175.56-52.92-212.99-9.04-37.43,6.45-216.86,6.45-216.86,0,0-14.2-36.14-34.86-42.59-20.65-6.46-45.18-20.66-89.07-50.34-43.88-29.69-66.51-169.58-73.57-237.52-6.19-59.6,55.51-290.43,58.09-309.8,2.58-19.36,46.46-136.83,55.51-151.02,9.03-14.21,105.85-68.42,105.85-68.42l433.72,25.81s63.24,33.56,86.49,68.42c23.23,34.85,98.1,307.21,107.13,331.74,9.04,24.53-1.29,69.7,0,98.1,1.3,28.41,23.24,54.22,28.41,91.65,5.16,37.44-21.95,90.36-20.66,107.14,1.3,16.78,5.16,72.29,5.16,72.29l-63.25,1.29Z"/><path class="cls-1" d="M2319.78,1963.12c-15.01,15.69-51.18,41.23-102.96,57.77-10.89-40.35-34.32-380.68-38.06-409.37-3.88-29.68-23.24-296.88-29.69-331.74-6.45-34.85-18.07-160.06-23.23-210.41-5.16-50.34-37.44-112.3-49.06-154.89-11.62-42.6-45.18-127.79-45.18-127.79,0-28.4,91.65-40.02,95.52-34.86,3.88,5.16,29.69,61.97,37.44,89.07,7.75,27.11,72.29,240.1,74.87,264.62,2.58,24.53,1.29,77.45,7.74,120.06,6.46,42.59,11.63,140.7,9.04,172.97-2.58,32.27,23.23,73.57,33.56,94.23,10.32,20.65-1.3,90.35-1.3,144.57s14.2,123.91,18.08,152.31c3.05,22.41,12.53,123.52,13.23,173.46Z"/><path class="cls-4" d="M2150.36,840.25c0,12.48-10.11,22.59-22.59,22.59-12.48,0-22.59-10.11-22.59-22.59s10.11-22.59,22.59-22.59c12.48,0,22.59,10.11,22.59,22.59Z"/><circle class="cls-4" cx="2185.86" cy="1059.69" r="22.59"/><circle class="cls-4" cx="2215.55" cy="1313.99" r="22.59"/><circle class="cls-4" cx="2245.24" cy="1597.97" r="22.59"/><path class="cls-4" d="M2284.61,1845.81c0,12.48-10.11,22.59-22.59,22.59-12.48,0-22.59-10.11-22.59-22.59s10.11-22.59,22.59-22.59c12.48,0,22.59,10.11,22.59,22.59Z"/><path class="cls-6" d="M2394.33,1487.6c-.62,1.72-5.16,100.69,0,104.56,5.16,3.87,18.07-32.27,19.36-47.76,1.29-15.49,9.04-18.07,12.91-9.04,3.87,9.04-7.75,50.34-9.04,56.8-1.29,6.45-28.4,29.69-25.82,34.85,2.58,5.16,14.2,2.58,28.4-6.45,14.2-9.04,25.82-19.36,28.4-25.82,2.58-6.45,12.91-40.02,14.2-56.8,1.29-16.78,3.87-54.22-3.87-59.38-7.75-5.16-59.38-5.16-64.54,9.04Z"/><path class="cls-17" d="M1968.35,1559.89c11.62,1.29,43.89-2.58,45.18,3.87,1.29,6.45,1.29,49.05-1.29,51.63-2.58,2.58-38.73,3.87-38.73,0s-5.16-55.51-5.16-55.51Z"/><path class="cls-4" d="M2066.46,2315.03s-24.53,120.05-23.24,135.54c1.29,15.49,41.31,28.4,41.31,28.4l9.04-20.65s24.22,112.37,77.14,126.57c52.92,14.2,80.34,1.22,97.12-11.69,16.78-12.91,7.75-69.71-10.33-98.1-18.07-28.4-61.96-90.36-64.54-108.43-2.58-18.07,11.18-54.22-9.9-51.63-21.08,2.58-61.09-9.04-64.97,0-3.87,9.04-7.75,24.53-16.78,19.36-9.04-5.16-30.98-51.63-34.85-19.36Z"/><path class="cls-4" d="M1902.11,2391.29c.18-3.73,2.67-6.93,6.24-8,13.67-4.11,45.14-11.83,56.13,.16,14.2,15.49,38.73-28.4,42.6-20.65,3.87,7.75,24.53,98.1,23.24,111.01-1.29,12.91-22.59,26.46-22.59,26.46l-8.39-22.59s10.33,90.36-23.24,111.01c-33.56,20.65-82.61,33.56-108.43,5.16-25.82-28.4,19.36-94.23,20.65-108.43,1.14-12.5,12.78-73.56,13.79-94.13Z"/><path class="cls-1" d="M1892.84,584.66s-79.39,93.59-76.8,106.49c2.58,12.91,21.94,109.72,20.65,125.21-1.29,15.49-2.58,23.24,0,24.53,2.58,1.29,167.81-23.24,196.21-40.02s40.11-36.88,40.11-36.88l-180.16-179.34Z"/><path class="cls-1" d="M2121.32,766.67s174.91,52.28,174.91,48.41-25.82-101.98-33.56-112.3c-7.75-10.33-40.02-6.45-47.76-18.07-7.75-11.62-47.12-65.19-49.7-60.02-2.58,5.16-43.89,141.99-43.89,141.99Z"/><path class="cls-15" d="M2174.88,693.74c0,18.08-16.78,27.11-23.23,33.56-6.45,6.46-33.56,51.64-36.14,54.22-2.58,2.58-7.75,5.16-19.36,0-1.06-.47-2.42-1.09-4.01-1.84,0,0,0,0-.03-.02-15.82-7.44-55.01-27.25-64.37-34.28-10.33-7.75-64.55-46.47-71-49.06-6.45-2.58-5.16-18.07-14.2-16.78-5.48,.79-12.39-11.25-18.41-22.58-3.92-7.34-7.45-14.38-9.99-17.43-6.46-7.75-2.58-12.91-2.58-16.78s-1.3-10.33-16.78-24.53c-15.49-14.2-20.66-68.42-20.66-99.4,0-30.98,0-73.57,19.36-117.46,19.36-43.89,72.68-76.15,89.07-78.74,83.07-13.14,99.4,27.1,116.18,42.59,16.78,15.49,38.73,64.54,46.47,82.62,7.75,18.07,23.23,65.83,27.11,104.55,3.87,38.73-18.08,87.78-18.08,87.78,6.45-1.3,15.49,5.16,18.08,11.62,2.57,6.45,2.57,43.89,2.57,61.96Z"/><polygon class="cls-6" points="2132.29 674.38 2001.91 674.38 2000.49 643.17 1999.33 617.58 2124.54 558.2 2127.23 598.54 2132.29 674.38"/><path class="cls-7" d="M2127.23,598.54c-11.22,28.06-34.61,56.47-80.14,56.47-18.69,0-34.01-4.44-46.6-11.85l-1.16-25.58,125.21-59.38,2.68,40.34Z"/><path class="cls-6" d="M1936.08,378.78c-2.58,0-2.58,94.23,5.16,141.99,7.75,47.76,25.82,129.08,105.85,129.08,80.03,0,91.65-87.78,89.07-107.14-2.58-19.36-23.24-111.01-29.69-131.67-6.45-20.65-42.6-98.1-101.98-85.2-59.38,12.91-68.41,52.92-68.41,52.92Z"/><path class="cls-4" d="M1935.93,376.36c-1.25,4.74,1.98,8.32,5.97,6.25,7.06-3.66,15.3-8.65,17.41-12.87,3.87-7.75,19.36,5.16,28.4-2.58,9.77-8.38,12-18.27,21.37-11.69,6.9,4.84,15.48,6.48,23.62,4.32,6.27-1.66,10.34,3.22,19.55,.92,10.33-2.58,19.63,8.01,28.67,9.3,9.04,1.29-12.54-33.18-37.06-40.92-26.88-8.49-48.57-8.26-60.67-1.29-21.3,12.26-41.4,26.23-47.26,48.57Z"/><path class="cls-15" d="M1993.52,654.37s61.96,3.87,74.87,16.78c12.91,12.91,50.34-24.53,63.9-21.3,13.55,3.23,10.97,39.37-.65,49.7-11.62,10.33-119.81,2.68-119.81,2.68l-18.31-47.86Z"/><polygon class="cls-1" points="1847.01 1674.77 1879.28 2624.18 1903.81 2624.18 1874.12 1677.36 1847.01 1674.77"/><path class="cls-17" d="M1871.14,2621.95c6.92,1.69,21.15,3.78,37.6-1.64,2.36-.78,4.86,.72,5.23,3.18,2.28,15.35,9.01,62.43,6.87,70.24-2.57,9.36-51.61,7.05-56.75,.67-4.33-5.36,.62-52.85,2.12-68.97,.23-2.43,2.56-4.06,4.93-3.48Z"/><path class="cls-17" d="M1841.85,1609.82c-3.87,10.33-3.23,78.02-.65,81.89,2.58,3.87,34.08,4.43,37.95,1.85,3.87-2.58-2.45-66.96-2.45-66.96l-34.85-16.78Z"/><path class="cls-6" d="M1835.21,1568.9s3.74,64.45,19.8,70.68c16.06,6.23,24.27,3.5,24.27,3.5,0,0,16.78,10.25,30.85,3.15,0,0,12.76,10.97,34.68,3.7,0,0,7.11,4.94,16.24,4.95,9.13,.01,25.22-21.14,25.05-28.99-.17-7.85-8.89-37.8-10.15-47.11-1.26-9.31-13.26-57.22-28.12-60.4-14.87-3.19-112.61,50.52-112.61,50.52Z"/><path class="cls-12" d="M1846.76,1066.03s-40.72,71.27-30.54,140.69c10.18,69.42,42.58,147.17,42.58,147.17,0,0-19.44-77.75-23.14-134.21-3.7-56.46,11.11-153.64,11.11-153.64Z"/><path class="cls-12" d="M2362.3,1011.42s35.17,183.26,38.87,255.46c4.41,86.09-38.87-255.46-38.87-255.46Z"/><path class="cls-16" d="M2092.11,779.66c-15.82-7.44-55.01-27.25-64.37-34.28-10.33-7.75-64.55-46.47-71-49.06-6.45-2.58-5.16-18.07-14.2-16.78-5.48,.79-12.39-11.25-18.41-22.58,5.53,5.77,13.53,14.78,16.11,14.78,3.7,0,13.88,11.11,16.66,18.51,2.76,7.35,133.17,88.15,135.21,89.41Z"/><path class="cls-16" d="M2139.24,677.29s-34.58,23.47-35.8,30.25c0,0,32.1-28.4,35.8-30.25Z"/><path class="cls-2" d="M2170.63,2256.92s-18.6,.51-19.28,2.47c-.68,1.95,19.28-2.47,19.28-2.47Z"/><path class="cls-2" d="M2147.65,2292.04s27.98,3.64,29.47,1.06c1.5-2.58-29.47-1.06-29.47-1.06Z"/><path class="cls-2" d="M1965.66,2347.64s27.98-3.59,28.77-6.47c.79-2.88-28.77,6.47-28.77,6.47Z"/><path class="cls-2" d="M1936.93,2300.13s-33.9,3.74-35.18,6.29c-1.27,2.55,35.18-6.29,35.18-6.29Z"/></g></g><g><ellipse class="cls-5" cx="7979.62" cy="2513.5" rx="541" ry="138.5"/><g><path class="cls-1" d="M8120.22,2343.43l-87.78,3.87-21.95-36.14,3.62-65.06,1.55-27.89,105.85-23.23s-2.27,32.49-3.91,50.06c-.51,5.4-.95,9.39-1.26,10.61-1.29,5.16,5.16,15.49,5.16,25.81s-5.16,7.75-1.29,16.78c3.87,9.04,0,45.19,0,45.19Z"/><path class="cls-1" d="M7953.49,2224.77c-4.15,31.46-15,90.09-13.99,94.13,1.29,5.16-2.58,19.36,0,20.65,2.58,1.3,7.75,25.81-2.58,40.01-10.33,14.21-80.03,28.41-86.48,25.82-6.46-2.58-10.33-27.11-7.75-36.14,2.58-9.03-2.58-19.36-3.87-25.81-1.3-6.46,1.29-32.27-2.58-40.02-2.31-4.62-1.87-46.02-1.13-78.65,.5-22.06,1.13-40.1,1.13-40.1,0,0,117.46,9.04,118.75,21.95,.28,2.8-.35,9.44-1.5,18.18Z"/><path class="cls-15" d="M7803.96,1953.59s-21.58,159.67-18.07,178.14c3.45,18.14,7.51,76.36,6.22,88.48-1.29,12.12,107.37-32.97,138.35-20.07,30.98,12.91,33.56,33.56,83.9,34.85,50.34,1.29,65.83-10.33,96.81-2.58,30.98,7.75,43.89,5.16,43.89,2.58s36.14-259.46,36.14-259.46l-387.25-21.94Z"/><path class="cls-19" d="M8338.36,1486.31s-1.29,89.07,0,105.85c1.3,16.78-33.56,265.92-37.43,294.31-3.88,28.4-23.24,51.64-37.44,71-1.23,1.68-2.84,3.58-4.84,5.65-15.01,15.69-51.18,41.23-102.96,57.77-19.94,6.37-42.2,11.41-66.46,14.03-67.15,7.26-189.78-10.36-256.72-30.43-10.26-3.08-19.22-6.22-26.47-9.34-12.72-5.46-20.16-10.85-20.16-15.73,0-25.82-43.89-175.56-52.92-212.99-9.04-37.43,6.45-216.86,6.45-216.86,0,0-14.2-36.14-34.86-42.59-20.65-6.46-45.18-20.66-89.07-50.34-43.88-29.69-66.51-169.58-73.57-237.52-6.19-59.6,55.51-290.43,58.09-309.8,2.58-19.36,46.46-136.83,55.51-151.02,9.03-14.21,105.85-68.42,105.85-68.42l433.72,25.81s63.24,33.56,86.49,68.42c23.23,34.85,98.1,307.21,107.13,331.74,9.04,24.53-1.29,69.7,0,98.1,1.3,28.41,23.24,54.22,28.41,91.65,5.16,37.44-21.95,90.36-20.66,107.14,1.3,16.78,5.16,72.29,5.16,72.29l-63.25,1.29Z"/><path class="cls-1" d="M8258.65,1963.12c-15.01,15.69-51.18,41.23-102.96,57.77-10.89-40.35-34.32-380.68-38.06-409.37-3.88-29.68-23.24-296.88-29.69-331.74-6.45-34.85-18.07-160.06-23.23-210.41-5.16-50.34-37.44-112.3-49.06-154.89-11.62-42.6-45.18-127.79-45.18-127.79,0-28.4,91.65-40.02,95.52-34.86,3.88,5.16,29.69,61.97,37.44,89.07,7.75,27.11,72.29,240.1,74.87,264.62,2.58,24.53,1.29,77.45,7.74,120.06,6.46,42.59,11.63,140.7,9.04,172.97-2.58,32.27,23.23,73.57,33.56,94.23,10.32,20.65-1.3,90.35-1.3,144.57,0,54.21,14.2,123.91,18.08,152.31,3.05,22.41,12.53,123.52,13.23,173.46Z"/><path class="cls-4" d="M8089.23,840.25c0,12.48-10.11,22.59-22.59,22.59-12.48,0-22.59-10.11-22.59-22.59s10.11-22.59,22.59-22.59c12.48,0,22.59,10.11,22.59,22.59Z"/><circle class="cls-4" cx="8124.73" cy="1059.69" r="22.59"/><circle class="cls-4" cx="8154.42" cy="1313.99" r="22.59"/><circle class="cls-4" cx="8184.11" cy="1597.97" r="22.59"/><path class="cls-4" d="M8223.48,1845.81c0,12.48-10.11,22.59-22.59,22.59-12.48,0-22.59-10.11-22.59-22.59,0-12.48,10.11-22.59,22.59-22.59,12.48,0,22.59,10.11,22.59,22.59Z"/><path class="cls-6" d="M8333.2,1487.6c-.62,1.72-5.16,100.69,0,104.56,5.16,3.87,18.07-32.27,19.36-47.76,1.29-15.49,9.04-18.07,12.91-9.04,3.87,9.04-7.75,50.34-9.04,56.8-1.29,6.45-28.4,29.69-25.82,34.85,2.58,5.16,14.2,2.58,28.4-6.45,14.2-9.04,25.82-19.36,28.4-25.82,2.58-6.45,12.91-40.02,14.2-56.8,1.29-16.78,3.87-54.22-3.87-59.38-7.75-5.16-59.38-5.16-64.54,9.04Z"/><path class="cls-17" d="M7907.23,1559.89c11.62,1.29,43.89-2.58,45.18,3.87,1.29,6.45,1.29,49.05-1.29,51.63-2.58,2.58-38.73,3.87-38.73,0s-5.16-55.51-5.16-55.51Z"/><path class="cls-10" d="M8005.33,2315.03s-24.53,120.05-23.24,135.54c1.29,15.49,41.31,28.4,41.31,28.4l9.04-20.65s24.22,112.37,77.14,126.57c52.92,14.2,80.34,1.22,97.12-11.69,16.78-12.91,7.75-69.71-10.33-98.1-18.07-28.4-61.96-90.36-64.54-108.43-2.58-18.07,11.18-54.22-9.9-51.63-21.08,2.58-61.09-9.04-64.97,0-3.87,9.04-7.75,24.53-16.78,19.36-9.04-5.16-30.98-51.63-34.85-19.36Z"/><path class="cls-10" d="M7840.98,2391.29c.18-3.73,2.67-6.93,6.24-8,13.67-4.11,45.14-11.83,56.13,.16,14.2,15.49,38.73-28.4,42.6-20.65s24.53,98.1,23.24,111.01c-1.29,12.91-22.59,26.46-22.59,26.46l-8.39-22.59s10.33,90.36-23.24,111.01c-33.56,20.65-82.61,33.56-108.43,5.16-25.82-28.4,19.36-94.23,20.65-108.43,1.14-12.5,12.78-73.56,13.79-94.13Z"/><path class="cls-1" d="M7831.71,584.66s-79.39,93.59-76.8,106.49c2.58,12.91,21.94,109.72,20.65,125.21-1.29,15.49-2.58,23.24,0,24.53,2.58,1.29,167.81-23.24,196.21-40.02,28.4-16.78,43.23-37.88,43.23-37.88l-183.29-178.34Z"/><path class="cls-1" d="M8060.19,766.67s174.91,52.28,174.91,48.41-25.82-101.98-33.56-112.3c-7.75-10.33-40.02-6.45-47.76-18.07-7.75-11.62-47.12-65.19-49.7-60.02s-43.89,141.99-43.89,141.99Z"/><path class="cls-15" d="M8113.76,693.74c0,18.08-16.78,27.11-23.23,33.56-6.45,6.46-33.56,51.64-36.14,54.22-2.58,2.58-7.75,5.16-19.36,0-1.06-.47-2.42-1.09-4.01-1.84,0,0,0,0-.03-.02-15.82-7.44-55.01-27.25-64.37-34.28-10.33-7.75-64.55-46.47-71-49.06-6.45-2.58-5.16-18.07-14.2-16.78-5.48,.79-12.39-11.25-18.41-22.58-3.92-7.34-7.45-14.38-9.99-17.43-6.46-7.75-2.58-12.91-2.58-16.78s-1.3-10.33-16.78-24.53c-15.49-14.2-20.66-68.42-20.66-99.4,0-30.98,0-73.57,19.36-117.46,19.36-43.89,72.68-76.15,89.07-78.74,83.07-13.14,99.4,27.1,116.18,42.59,16.78,15.49,38.73,64.54,46.47,82.62,7.75,18.07,23.23,65.83,27.11,104.55,3.87,38.73-18.08,87.78-18.08,87.78,6.45-1.3,15.49,5.16,18.08,11.62,2.57,6.45,2.57,43.89,2.57,61.96Z"/><polygon class="cls-6" points="8071.16 674.38 7940.79 674.38 7939.37 643.17 7938.21 617.58 8063.42 558.2 8066.1 598.54 8071.16 674.38"/><path class="cls-7" d="M8066.1,598.54c-11.22,28.06-34.61,56.47-80.14,56.47-18.69,0-34.01-4.44-46.6-11.85l-1.16-25.58,125.21-59.38,2.68,40.34Z"/><path class="cls-6" d="M7874.96,378.78c-2.58,0-2.58,94.23,5.16,141.99,7.75,47.76,25.82,129.08,105.85,129.08,80.03,0,91.65-87.78,89.07-107.14-2.58-19.36-23.24-111.01-29.69-131.67-6.45-20.65-42.6-98.1-101.98-85.2-59.38,12.91-68.41,52.92-68.41,52.92Z"/><path class="cls-4" d="M7874.81,376.36c-1.25,4.74,1.98,8.32,5.97,6.25,7.06-3.66,15.3-8.65,17.41-12.87,3.87-7.75,19.36,5.16,28.4-2.58,9.77-8.38,12-18.27,21.37-11.69,6.9,4.84,15.48,6.48,23.62,4.32,6.27-1.66,10.34,3.22,19.55,.92,10.33-2.58,19.63,8.01,28.67,9.3,9.04,1.29-12.54-33.18-37.06-40.92-26.88-8.49-48.57-8.26-60.67-1.29-21.3,12.26-41.4,26.23-47.26,48.57Z"/><path class="cls-15" d="M7932.4,654.37s61.96,3.87,74.87,16.78c12.91,12.91,50.34-24.53,63.9-21.3,13.55,3.23,10.97,39.37-.65,49.7-11.62,10.33-119.81,2.68-119.81,2.68l-18.31-47.86Z"/><polygon class="cls-4" points="7785.89 1674.77 7818.16 2624.18 7842.69 2624.18 7813 1677.36 7785.89 1674.77"/><path class="cls-17" d="M7810.01,2621.95c6.92,1.69,21.15,3.78,37.6-1.64,2.36-.78,4.86,.72,5.23,3.18,2.28,15.35,9.01,62.43,6.87,70.24-2.57,9.36-51.61,7.05-56.75,.67-4.33-5.36,.62-52.85,2.12-68.97,.23-2.43,2.56-4.06,4.93-3.48Z"/><path class="cls-17" d="M7780.73,1609.82c-3.87,10.33-3.23,78.02-.65,81.89,2.58,3.87,34.08,4.43,37.95,1.85s-2.45-66.96-2.45-66.96l-34.85-16.78Z"/><path class="cls-6" d="M7774.08,1568.9s3.74,64.45,19.8,70.68c16.06,6.23,24.27,3.5,24.27,3.5,0,0,16.78,10.25,30.85,3.15,0,0,12.76,10.97,34.68,3.7,0,0,7.11,4.94,16.24,4.95,9.13,.01,25.22-21.14,25.05-28.99-.17-7.85-8.89-37.8-10.15-47.11-1.26-9.31-13.26-57.22-28.12-60.4-14.87-3.19-112.61,50.52-112.61,50.52Z"/><path class="cls-20" d="M7785.63,1066.03s-40.72,71.27-30.54,140.69c10.18,69.42,42.58,147.17,42.58,147.17,0,0-19.44-77.75-23.14-134.21-3.7-56.46,11.11-153.64,11.11-153.64Z"/><path class="cls-20" d="M8301.17,1011.42s35.17,183.26,38.87,255.46c4.41,86.09-38.87-255.46-38.87-255.46Z"/><path class="cls-16" d="M8030.98,779.66c-15.82-7.44-55.01-27.25-64.37-34.28-10.33-7.75-64.55-46.47-71-49.06-6.45-2.58-5.16-18.07-14.2-16.78-5.48,.79-12.39-11.25-18.41-22.58,5.53,5.77,13.53,14.78,16.11,14.78,3.7,0,13.88,11.11,16.66,18.51,2.76,7.35,133.17,88.15,135.21,89.41Z"/><path class="cls-16" d="M8078.11,677.29s-34.58,23.47-35.8,30.25c0,0,32.1-28.4,35.8-30.25Z"/><path class="cls-2" d="M8109.5,2256.92s-18.6,.51-19.28,2.47c-.68,1.95,19.28-2.47,19.28-2.47Z"/><path class="cls-2" d="M8086.52,2292.04s27.98,3.64,29.47,1.06c1.5-2.58-29.47-1.06-29.47-1.06Z"/><path class="cls-2" d="M7904.54,2347.64s27.98-3.59,28.77-6.47c.79-2.88-28.77,6.47-28.77,6.47Z"/><path class="cls-2" d="M7875.8,2300.13s-33.9,3.74-35.18,6.29c-1.27,2.55,35.18-6.29,35.18-6.29Z"/></g></g><g><ellipse class="cls-5" cx="9959.25" cy="2513.5" rx="541" ry="138.5"/><g><path class="cls-1" d="M10099.84,2343.43l-87.78,3.87-21.95-36.14,3.62-65.06,1.55-27.89,105.85-23.23s-2.27,32.49-3.91,50.06c-.51,5.4-.95,9.39-1.26,10.61-1.29,5.16,5.16,15.49,5.16,25.81s-5.16,7.75-1.29,16.78c3.87,9.04,0,45.19,0,45.19Z"/><path class="cls-1" d="M9933.11,2224.77c-4.15,31.46-15,90.09-13.99,94.13,1.29,5.16-2.58,19.36,0,20.65,2.58,1.3,7.75,25.81-2.58,40.01-10.33,14.21-80.03,28.41-86.48,25.82-6.46-2.58-10.33-27.11-7.75-36.14,2.58-9.03-2.58-19.36-3.87-25.81-1.3-6.46,1.29-32.27-2.58-40.02-2.31-4.62-1.87-46.02-1.13-78.65,.5-22.06,1.13-40.1,1.13-40.1,0,0,117.46,9.04,118.75,21.95,.28,2.8-.35,9.44-1.5,18.18Z"/><path class="cls-3" d="M9783.59,1953.59s-21.58,159.67-18.07,178.14c3.45,18.14,7.51,76.36,6.22,88.48-1.29,12.12,107.37-32.97,138.35-20.07,30.98,12.91,33.56,33.56,83.9,34.85,50.34,1.29,65.83-10.33,96.81-2.58,30.98,7.75,43.89,5.16,43.89,2.58s36.14-259.46,36.14-259.46l-387.25-21.94Z"/><path class="cls-17" d="M10317.99,1486.31s-1.29,89.07,0,105.85c1.3,16.78-33.56,265.92-37.43,294.31-3.88,28.4-23.24,51.64-37.44,71-1.23,1.68-2.84,3.58-4.84,5.65-15.01,15.69-51.18,41.23-102.96,57.77-19.94,6.37-42.2,11.41-66.46,14.03-67.15,7.26-189.78-10.36-256.72-30.43-10.26-3.08-19.22-6.22-26.47-9.34-12.72-5.46-20.16-10.85-20.16-15.73,0-25.82-43.89-175.56-52.92-212.99-9.04-37.43,6.45-216.86,6.45-216.86,0,0-14.2-36.14-34.86-42.59-20.65-6.46-45.18-20.66-89.07-50.34-43.88-29.69-66.51-169.58-73.57-237.52-6.19-59.6,55.51-290.43,58.09-309.8,2.58-19.36,46.46-136.83,55.51-151.02,9.03-14.21,105.85-68.42,105.85-68.42l433.72,25.81s63.24,33.56,86.49,68.42c23.23,34.85,98.1,307.21,107.13,331.74,9.04,24.53-1.29,69.7,0,98.1,1.3,28.41,23.24,54.22,28.41,91.65,5.16,37.44-21.95,90.36-20.66,107.14,1.3,16.78,5.16,72.29,5.16,72.29l-63.25,1.29Z"/><path class="cls-1" d="M10238.28,1963.12c-15.01,15.69-51.18,41.23-102.96,57.77-10.89-40.35-34.32-380.68-38.06-409.37-3.88-29.68-23.24-296.88-29.69-331.74-6.45-34.85-18.07-160.06-23.23-210.41-5.16-50.34-37.44-112.3-49.06-154.89-11.62-42.6-45.18-127.79-45.18-127.79,0-28.4,91.65-40.02,95.52-34.86,3.88,5.16,29.69,61.97,37.44,89.07,7.75,27.11,72.29,240.1,74.87,264.62,2.58,24.53,1.29,77.45,7.74,120.06,6.46,42.59,11.63,140.7,9.04,172.97-2.58,32.27,23.23,73.57,33.56,94.23,10.32,20.65-1.3,90.35-1.3,144.57s14.2,123.91,18.08,152.31c3.05,22.41,12.53,123.52,13.23,173.46Z"/><path class="cls-4" d="M10068.86,840.25c0,12.48-10.11,22.59-22.59,22.59-12.48,0-22.59-10.11-22.59-22.59s10.11-22.59,22.59-22.59c12.48,0,22.59,10.11,22.59,22.59Z"/><circle class="cls-4" cx="10104.36" cy="1059.69" r="22.59"/><circle class="cls-4" cx="10134.05" cy="1313.99" r="22.59"/><circle class="cls-4" cx="10163.74" cy="1597.97" r="22.59"/><path class="cls-4" d="M10203.11,1845.81c0,12.48-10.11,22.59-22.59,22.59-12.48,0-22.59-10.11-22.59-22.59s10.11-22.59,22.59-22.59c12.48,0,22.59,10.11,22.59,22.59Z"/><path class="cls-6" d="M10312.83,1487.6c-.62,1.72-5.16,100.69,0,104.56,5.16,3.87,18.07-32.27,19.36-47.76,1.29-15.49,9.04-18.07,12.91-9.04,3.87,9.04-7.75,50.34-9.04,56.8-1.29,6.45-28.4,29.69-25.82,34.85,2.58,5.16,14.2,2.58,28.4-6.45s25.82-19.36,28.4-25.82c2.58-6.45,12.91-40.02,14.2-56.8,1.29-16.78,3.87-54.22-3.87-59.38-7.75-5.16-59.38-5.16-64.54,9.04Z"/><path class="cls-17" d="M9886.85,1559.89c11.62,1.29,43.89-2.58,45.18,3.87,1.29,6.45,1.29,49.05-1.29,51.63-2.58,2.58-38.73,3.87-38.73,0s-5.16-55.51-5.16-55.51Z"/><path class="cls-17" d="M9984.96,2315.03s-24.53,120.05-23.24,135.54c1.29,15.49,41.31,28.4,41.31,28.4l9.04-20.65s24.22,112.37,77.14,126.57c52.92,14.2,80.34,1.22,97.12-11.69,16.78-12.91,7.75-69.71-10.33-98.1-18.07-28.4-61.96-90.36-64.54-108.43-2.58-18.07,11.18-54.22-9.9-51.63-21.08,2.58-61.09-9.04-64.97,0-3.87,9.04-7.75,24.53-16.78,19.36-9.04-5.16-30.98-51.63-34.85-19.36Z"/><path class="cls-17" d="M9820.61,2391.29c.18-3.73,2.67-6.93,6.24-8,13.67-4.11,45.14-11.83,56.13,.16,14.2,15.49,38.73-28.4,42.6-20.65,3.87,7.75,24.53,98.1,23.24,111.01-1.29,12.91-22.59,26.46-22.59,26.46l-8.39-22.59s10.33,90.36-23.24,111.01c-33.56,20.65-82.61,33.56-108.43,5.16-25.82-28.4,19.36-94.23,20.65-108.43,1.14-12.5,12.78-73.56,13.79-94.13Z"/><path class="cls-1" d="M9811.34,584.66s-79.39,93.59-76.8,106.49c2.58,12.91,21.94,109.72,20.65,125.21-1.29,15.49-2.58,23.24,0,24.53,2.58,1.29,167.81-23.24,196.21-40.02,28.4-16.78,42.61-31.88,42.61-31.88l-182.66-184.34Z"/><path class="cls-1" d="M10039.82,766.67s174.91,52.28,174.91,48.41-25.82-101.98-33.56-112.3c-7.75-10.33-40.02-6.45-47.76-18.07-7.75-11.62-47.12-65.19-49.7-60.02-2.58,5.16-43.89,141.99-43.89,141.99Z"/><path class="cls-17" d="M10093.38,693.74c0,18.08-16.78,27.11-23.23,33.56-6.45,6.46-33.56,51.64-36.14,54.22-2.58,2.58-7.75,5.16-19.36,0-1.06-.47-2.42-1.09-4.01-1.84,0,0,0,0-.03-.02-15.82-7.44-55.01-27.25-64.37-34.28-10.33-7.75-64.55-46.47-71-49.06-6.45-2.58-5.16-18.07-14.2-16.78-5.48,.79-12.39-11.25-18.41-22.58-3.92-7.34-7.45-14.38-9.99-17.43-6.46-7.75-2.58-12.91-2.58-16.78s-1.3-10.33-16.78-24.53c-15.49-14.2-20.66-68.42-20.66-99.4,0-30.98,0-73.57,19.36-117.46,19.36-43.89,72.68-76.15,89.07-78.74,83.07-13.14,99.4,27.1,116.18,42.59,16.78,15.49,38.73,64.54,46.47,82.62,7.75,18.07,23.23,65.83,27.11,104.55,3.87,38.73-18.08,87.78-18.08,87.78,6.45-1.3,15.49,5.16,18.08,11.62,2.57,6.45,2.57,43.89,2.57,61.96Z"/><polygon class="cls-6" points="10050.79 674.38 9920.41 674.38 9918.99 643.17 9917.83 617.58 10043.04 558.2 10045.73 598.54 10050.79 674.38"/><path class="cls-7" d="M10045.73,598.54c-11.22,28.06-34.61,56.47-80.14,56.47-18.69,0-34.01-4.44-46.6-11.85l-1.16-25.58,125.21-59.38,2.68,40.34Z"/><path class="cls-6" d="M9854.58,378.78c-2.58,0-2.58,94.23,5.16,141.99,7.75,47.76,25.82,129.08,105.85,129.08,80.03,0,91.65-87.78,89.07-107.14-2.58-19.36-23.24-111.01-29.69-131.67-6.45-20.65-42.6-98.1-101.98-85.2-59.38,12.91-68.41,52.92-68.41,52.92Z"/><path class="cls-4" d="M9854.43,376.36c-1.25,4.74,1.98,8.32,5.97,6.25,7.06-3.66,15.3-8.65,17.41-12.87,3.87-7.75,19.36,5.16,28.4-2.58,9.77-8.38,12-18.27,21.37-11.69,6.9,4.84,15.48,6.48,23.62,4.32,6.27-1.66,10.34,3.22,19.55,.92,10.33-2.58,19.63,8.01,28.67,9.3,9.04,1.29-12.54-33.18-37.06-40.92-26.88-8.49-48.57-8.26-60.67-1.29-21.3,12.26-41.4,26.23-47.26,48.57Z"/><path class="cls-17" d="M9912.02,654.37s61.96,3.87,74.87,16.78c12.91,12.91,50.34-24.53,63.9-21.3,13.55,3.23,10.97,39.37-.65,49.7-11.62,10.33-119.81,2.68-119.81,2.68l-18.31-47.86Z"/><polygon class="cls-15" points="9765.51 1674.77 9797.78 2624.18 9822.31 2624.18 9792.62 1677.36 9765.51 1674.77"/><path class="cls-17" d="M9789.64,2621.95c6.92,1.69,21.15,3.78,37.6-1.64,2.36-.78,4.86,.72,5.23,3.18,2.28,15.35,9.01,62.43,6.87,70.24-2.57,9.36-51.61,7.05-56.75,.67-4.33-5.36,.62-52.85,2.12-68.97,.23-2.43,2.56-4.06,4.93-3.48Z"/><path class="cls-17" d="M9760.35,1609.82c-3.87,10.33-3.23,78.02-.65,81.89,2.58,3.87,34.08,4.43,37.95,1.85,3.87-2.58-2.45-66.96-2.45-66.96l-34.85-16.78Z"/><path class="cls-6" d="M9753.71,1568.9s3.74,64.45,19.8,70.68c16.06,6.23,24.27,3.5,24.27,3.5,0,0,16.78,10.25,30.85,3.15,0,0,12.76,10.97,34.68,3.7,0,0,7.11,4.94,16.24,4.95,9.13,.01,25.22-21.14,25.05-28.99-.17-7.85-8.89-37.8-10.15-47.11-1.26-9.31-13.26-57.22-28.12-60.4-14.87-3.19-112.61,50.52-112.61,50.52Z"/><path class="cls-18" d="M9765.26,1066.03s-40.72,71.27-30.54,140.69c10.18,69.42,42.58,147.17,42.58,147.17,0,0-19.44-77.75-23.14-134.21-3.7-56.46,11.11-153.64,11.11-153.64Z"/><path class="cls-18" d="M10280.8,1011.42s35.17,183.26,38.87,255.46c4.41,86.09-38.87-255.46-38.87-255.46Z"/><path class="cls-18" d="M10010.61,779.66c-15.82-7.44-55.01-27.25-64.37-34.28-10.33-7.75-64.55-46.47-71-49.06-6.45-2.58-5.16-18.07-14.2-16.78-5.48,.79-12.39-11.25-18.41-22.58,5.53,5.77,13.53,14.78,16.11,14.78,3.7,0,13.88,11.11,16.66,18.51,2.76,7.35,133.17,88.15,135.21,89.41Z"/><path class="cls-18" d="M10057.74,677.29s-34.58,23.47-35.8,30.25c0,0,32.1-28.4,35.8-30.25Z"/><path class="cls-2" d="M10089.13,2256.92s-18.6,.51-19.28,2.47c-.68,1.95,19.28-2.47,19.28-2.47Z"/><path class="cls-2" d="M10066.15,2292.04s27.98,3.64,29.47,1.06c1.5-2.58-29.47-1.06-29.47-1.06Z"/><path class="cls-2" d="M9884.16,2347.64s27.98-3.59,28.77-6.47c.79-2.88-28.77,6.47-28.77,6.47Z"/><path class="cls-2" d="M9855.43,2300.13s-33.9,3.74-35.18,6.29c-1.27,2.55,35.18-6.29,35.18-6.29Z"/></g></g></g></g></svg>