<?xml version="1.0" encoding="UTF-8"?><svg id="_Слой_1" xmlns="http://www.w3.org/2000/svg" viewBox="0 0 12000 4200"><defs><style>.cls-1,.cls-2{fill:#fff;}.cls-3{fill:#edcaa6;}.cls-4{fill:#bfbfbf;}.cls-5{fill:#d1ad8c;}.cls-6,.cls-7{fill:#606060;}.cls-8{fill:#934717;opacity:.32;}.cls-9{opacity:.31;}.cls-9,.cls-10{fill:#a3998b;}.cls-11{fill:#e0a565;opacity:.41;}.cls-2{opacity:.39;}.cls-7,.cls-10{opacity:.37;}</style></defs><rect class="cls-1" width="12000" height="4200"/><g><path class="cls-10" d="m1689,3334.36c13.55-142.27-142.25-365.82-210-433.57-67.74-67.74-203.23-37.26-260.82-71.14-57.58-33.87-15.25-110.07-1.69-150.73,13.54-40.63-20.33-81.29-40.65-105-20.33-23.71,13.54-74.53,13.54-74.53,0,0-27.09-27.1-27.09-50.81s67.74-128.71,67.74-128.71c0,0-57.58,10.16-115.17,0-57.58-10.16-60.97-44.04-60.97-77.92s193.07-237.1,226.94-342.11c33.88-105,40.65-172.75,57.59-206.62,16.94-33.87,203.23-321.8,203.23-321.8-113.47-52.49-32.18-194.76,99.93-218.47,132.1-23.71,145.66-23.71,270.99-37.25,125.33-13.54,308.24,27.09,423.41,27.09s281.13,50.82,389.53,132.11c108.39,81.3,247.28,403.08,342.12,701.18,94.83,298.08-20.33,172.74,13.55,409.85,33.87,237.11,47.42,206.63-250.66,443.73-298.08,237.11-362.44,138.9-362.44,138.9,0,0,10.16,60.96,359.06,518.24,142.08,186.24,227.99,457.3,279.9,713.21h-1807.38c166.88-260.81,378.19-748.4,389.34-865.64Z"/><path class="cls-9" d="m5515.07,3686.96c-48.12-518.78-823.62-673.86-818.25-968.01,5.35-294.16,112.31-251.37,112.31-251.37,272.76,117.65,299.31,15.89,320.88-10.69,21.78-26.83-16.04-133.71,32.08-144.41,48.14-10.69,10.69-101.61,10.69-101.61,74.88-16.04,37.45-139.04,37.45-149.74,0-10.69,85.57-37.45,106.96-58.84,21.39-21.39-85.57-165.8-96.27-208.57-10.69-42.8-21.39-123,5.35-176.49,26.74-53.49-58.84-374.37-58.84-374.37,0,0,5.35-10.69,0-96.27-5.35-85.57-112.31-176.49-155.08-229.96-42.8-53.49-90.92,37.43-171.14-26.75-80.22-64.17-155.1-53.47-187.18-48.12-32.08,5.35-139.04-58.84-540.17,48.12-401.1,106.96-398.42,623.05-398.42,623.05-26.75-10.69-64.18,58.84-64.18,58.84-163.11-40.11-350.3,377.03-366.34,542.83-16.04,165.8-26.75,240.67-26.75,443.9,0,203.23-90.92,315.53-90.92,566.9,0,251.35,10.71,278.1,155.1,577.6,94.7,196.42,96.4,388.23,86.34,497h2087.89c24.22-82.98,44.17-236.43,18.5-513.04Zm-1460.03-1165.9c-15.8,221.13-202.59,338.58-208.44,342.19,85.48-70.02,128.14-631.08-.13-812.81-128.37-181.84-106.98-224.63-96.27-283.45,0,0,64.16-112.33,58.82,48.12-5.35,160.45,80.22,331.59,187.18,379.72,106.96,48.14,74.88,101.61,58.84,326.23Z"/><path class="cls-11" d="m3802.21,1262.45c-27.01,99.08-63.05,346.77-130.6,400.81-67.55,54.04-112.59,63.05-99.08,135.11,13.51,72.05-72.05,67.55-72.05,112.59s-297.24,405.31-418.83,454.85c-121.59,49.54-36.02,445.85,27.03,522.4,63.05,76.57,292.72,711.56,310.73,1076.35,6.05,122.51,9.05,194.22,10.37,235.44h-1534.15c-3.08-82.06,24.29-280.94,276.32-609.24,342.26-445.85,315.24-689.03,283.72-761.1-31.53-72.05-72.05-337.76-108.09-333.26-36.03,4.5-153.12,81.07-243.2,45.04-90.06-36.02-81.06-90.06-121.59-139.6-40.52-49.54-49.54-22.53-67.55-49.54-18.01-27.03-4.5-76.57,13.51-76.57,0,0-58.54-54.04-31.52-90.06,27.01-36.03,31.52-9,40.52-31.53,9.02-22.51,22.53-40.54,4.52-49.54-18.02-9-49.54-27.01-40.54-63.05,9-36.02,90.06-94.58,108.08-126.09,18.01-31.53,63.05-49.54,45.04-139.62-18.02-90.06-40.54-175.63,0-265.69,40.52-90.08,121.59-144.12,112.59-171.15-9.02-27.01-63.06-103.57-36.03-121.59,27.01-18.01,27.01,9,40.54-9,13.51-18.01,4.5-54.04,22.51-49.54,18.01,4.5,20.26-38.27,20.26-38.27-9.01-58.56-49.53-67.56,0-117.1,49.54-49.52,58.56-9,103.58-49.52,45.04-40.54,108.08,22.51,117.09,0,9.02-22.53-27.01-36.03-31.51-85.57-4.5-49.54-54.04-58.54-18.01-117.09,36.02-58.54,130.6-81.07,130.6-81.07,0,0-22.51-67.55,40.54-117.09,63.05-49.54,117.09-184.64,211.67-184.64s94.56-144.12,247.69-135.1c153.12,9,58.54,22.51,180.14,36.02,121.59,13.51,229.68-58.54,342.26,54.04,112.59,112.59,54.04,108.09,99.08,157.63,45.04,49.54,65.3,47.29,96.83,119.34,31.53,72.05,67.55,76.57,76.55,175.63,9.02,99.08,0,112.59-13.51,216.17-13.51,103.58,31.53,171.13,4.5,270.21Z"/><path class="cls-7" d="m3820.22,2869.85c1.44,21.71,23.16,41.97,7.24,81.05-15.93,39.08-41.98,44.88-15.93,73.83,26.06,28.96-21.71,68.04-39.08,89.76-17.37,21.71,10.13,36.18-4.34,59.34-14.47,23.17-4.34,21.71-11.59,68.04-7.23,46.33-31.84,36.18-62.24,40.53-30.4,4.34,0,36.18,0,65.14s-41.98,10.13-53.56,40.53c-11.59,30.4,0,24.61-33.3,31.86-33.29,7.23-31.84,36.18-27.5,75.27,4.34,39.08-36.18,20.26-37.64,52.11-1.44,31.84-33.28,55-53.56,73.83-20.27,18.81-36.18-13.03-53.56,13.03-17.37,26.06-20.27,46.31-46.33,43.43-26.06-2.9-31.84,2.89-60.8,1.44-28.94-1.44-36.18,34.74-70.93,37.64-34.74,2.89-27.5,17.36-86.86,2.89-59.34-14.47-82.51-70.93-82.51-70.93,0,0,5.58,231.65,14.49,269.25,24.5,103.41,61.44,198.83,97.68,282.12h-707.3c.06-.42.12-.86.19-1.3,7.24-46.33-27.5-170.81-59.34-275.04-31.86-104.23-44.87-123.04-94.1-143.31-49.21-20.27-217.12,26.06-314.12,10.13-96.98-15.91-76.71-125.92-73.81-150.54,2.89-24.61-7.24-33.3-39.08-47.77-31.86-14.47-56.46-15.93-62.26-47.77-5.79-31.84,36.2-55,36.2-55-72.38-20.27-53.57-83.97-33.3-102.78,20.27-18.81,45.6-74.56,45.6-74.56-62.24-21.7-78.17-62.24-76.73-92.64,1.46-30.4,72.38-104.23,108.57-146.2,36.2-41.98,39.08-85.41,36.2-114.35-2.9-28.96-23.17-102.78-24.61-118.7-1.44-15.93,15.93-30.4,20.27-81.07,4.34-50.67,69.47-172.25,69.47-172.25,0,0-81.78-13.76-90.47-62.97-8.69-49.23-23.16-57.9-78.17-98.44-55-40.53,17.37-86.86,14.49-117.25-2.9-30.4-5.8-63.68,26.06-91.18,31.84-27.51-18.83-55.01-20.27-83.97-1.44-28.94,62.24-26.06,92.64-50.66,30.4-24.61-20.26-50.67,27.5-96.98,47.77-46.33,73.83,53.56,108.57,13.03,34.74-40.54-5.79-55.01,52.11-82.51,57.9-27.51,56.46,30.4,95.54,7.23,39.09-23.16,30.4-60.8,79.61-44.87,49.23,15.93,50.67-15.93,89.75-53.56,39.08-37.64,79.61,34.74,117.25,40.53,37.63,5.79,17.37-44.87,44.87-65.14,27.5-20.26,57.9,72.38,112.91,43.43,55-28.94,62.24-8.69,107.11,13.03,44.87,21.71,10.13-13.03,78.17-33.28,68.04-20.27,40.53,34.73,73.83,49.21,33.3,14.47,57.9-34.74,107.11,8.69,49.23,43.43,47.77-2.9,91.2,0,43.43,2.89,10.14,75.27,94.1,44.87,83.95-30.4,55,50.67,82.51,59.36,27.5,8.69,27.5,1.44,76.71,56.46,49.21,55,78.17,36.18,114.35,85.4,36.2,49.21,10.14,60.8,65.14,79.61,55.01,18.83,75.27,40.54,79.61,68.04,4.34,27.5-11.57,43.43,47.77,66.58,59.36,23.16,43.43,105.67,65.14,123.04,21.71,17.37,52.11,8.69,36.2,75.27-15.93,66.6-26.06,55.01,23.16,131.74,49.21,76.71-27.5,176.6-26.06,198.31Z"/><path class="cls-8" d="m4256.32,3485.37c27.61-145.96,74.97-232.76,106.52-220.93,31.57,11.83,248.56,98.63,347.19,98.63,98.64,0,177.55-86.8,177.55-173.59,0-86.8,78.9-126.24,82.86-177.53,3.94-51.29-23.68-59.18-23.68-59.18,0,0,67.07-35.51,31.55-94.69-35.51-59.18-51.27-90.75-51.27-90.75,0,0,110.46-23.66,98.63-102.56-11.83-78.9-110.47-157.83-142.02-205.16-31.57-47.35,3.94-82.86,3.94-82.86,0,0,63.12,7.89,67.07-47.34,0,0-43.4,23.68-55.25,11.83-11.83-11.83,11.85-74.95-15.77-78.9,22.16-32.59,29.5-73.14,19.84-111.37-20.84-82.62-49.41-158.69-65.23-222-19.72-78.9-339.29-351.14-437.92-378.75-98.64-27.61-202.4-61.29-230.01-77.06-27.61-15.78-189.96-107.07-379.93-62.17,0,0-82.46,38.61-149.54,42.57-67.07,3.94-67.07-11.85-102.58-3.95-35.51,7.89-47.34,47.35-71.01,55.25-23.68,7.89-43.4,23.66-55.23,3.94-11.85-19.72-39.46-78.9-118.36-78.9-78.9,0-106.52,55.23-138.09,78.9-31.57,23.68-86.8,31.57-126.26,82.86-39.44,51.29-51.29,86.8-47.34,94.69,3.94,7.89-55.23,23.66-43.4,43.4,11.83,19.72-47.35,47.34-31.57,74.95,15.78,27.63-19.72,63.14-7.89,90.75,0,0-35.51,59.18-23.66,86.8,0,0-23.68,31.55-7.89,71.01,15.78,39.46-11.85,27.61-11.85,63.12s11.85,47.35,0,59.18c-11.83,11.85-27.61,39.46-23.66,71.01,0,0-23.68,27.63-19.74,59.18,3.95,31.57-19.72,74.97-7.89,102.58,11.85,27.61-23.66,51.29-19.72,74.97,3.95,23.66,19.72,59.18,11.85,86.8-7.89,27.61-23.68,43.4-11.85,59.18,0,0-23.68,55.23-3.94,74.95,0,0-27.63,39.46-15.78,71.01,0,0-19.72,47.35-11.85,74.97,0,0-31.55,35.51-15.77,71.01,0,0-27.63,51.29-19.74,74.97,0,0-23.66,39.44-15.77,67.07,0,0-27.63,47.34-15.78,78.9,0,0-31.57,63.12-19.74,90.73,11.85,27.61-31.55,27.61-27.61,82.86,3.95,55.23-23.66,27.61-23.66,90.73,0,63.14-31.57,35.51-35.52,86.8-3.94,51.29-7.87,63.14-27.61,82.86-19.72,19.72-7.89,43.4-15.78,59.18-7.87,15.78-51.27,39.44-43.4,67.06,7.89,27.63,7.89,55.25,7.89,55.25,0,0-65.74,256.57-120.61,442.39h2869.05c-186.79-172.59-476.71-429.66-858.62-568.65-108.54-39.5-161.76,0-134.15-145.98Zm-712.12-329.43c-35.51,201.22-157.81,244.62-177.55,248.56-19.72,3.95-67.06-31.57-126.24-15.78-59.18,15.78-165.7,106.54-165.7,106.54,0,0-3.95-39.46,15.77-59.18,19.74-19.74,0-63.14,15.78-71.01,15.78-7.89,7.89-59.18,7.89-59.18,23.68-7.89,23.68-82.86,23.68-82.86,19.72-15.78,3.94-63.12,3.94-63.12,23.68-19.72,0-67.07,0-67.07,19.74-11.83,19.74-67.07,19.74-67.07,15.77-11.83,0-47.34,15.77-74.95,15.78-27.63-15.77-19.74,0-63.14,15.78-43.4-3.94-63.12,7.89-86.8,11.85-23.66-3.94-43.4,7.89-63.12,11.85-19.72-19.72-51.29-3.94-74.97,15.78-23.66,0-59.16,0-82.84,0-23.68,23.68-27.61,7.89-51.29-15.78-23.68-7.89-39.46,7.89-63.12,15.77-23.68-19.74-51.29,0-67.07,19.72-15.78-7.89-59.18,11.83-82.86,19.72-23.66-7.89-67.06,7.89-74.95,15.78-7.89-19.72-59.18,0-67.07,19.72-7.89,11.83-90.75,7.89-130.19-3.95-39.46,23.68-19.72,55.23-19.72,0,0,11.85,173.59,19.74,268.28,7.87,94.69,130.19,295.89,165.7,374.8,35.51,78.9,106.52,288,71.01,489.21Z"/><path class="cls-2" d="m4104.53,2965.52c-63.56,33.16-33.16,77.37-27.64,85.66,5.52,8.29,16.58,38.68-19.34,55.27,0,0,22.1,27.63-2.76,58.02-24.87,30.4-22.11,38.69-22.11,60.79s19.34,105-33.16,132.63c-52.5,27.64-185.13,27.64-262.51,24.87-77.37-2.76-132.64,82.9-146.45,127.11-13.82,44.2-49.74,151.98-41.45,190.67,6.75,31.5,229.71,315.85,348.08,499.45h-1122.94c54.32-128.85,140.68-329.51,140.68-329.51,60.78-151.98,129.87-375.8,149.21-422.78,19.34-46.98,71.84-276.33,0-348.18-71.85-71.84-243.17-259.75-273.57-475.29-30.4-215.53,0-240.41,0-240.41,0,0-78.75,6.91-134.01-37.3-55.27-44.21-58.03-124.35-35.93-210.01,22.11-85.66,171.33-281.85,306.72-210.01,135.41,71.84,110.53,140.93,121.59,140.93s30.4,0,88.42-33.16c58.03-33.16,185.14-52.51,417.26-24.87,232.12,27.64,342.65,182.38,337.12,190.67,0,0,99.49,132.63,116.07,182.37,16.58,49.74,44.2,118.83,44.2,182.38s-13.81,107.76-5.52,138.16c8.29,30.4,96.71,143.69,105.01,165.8,8.28,22.1,16.58,63.56-46.98,96.71Z"/></g><g><g><path d="m6555.43,2944.6h-14.77v-227.95h14.77v227.95Z"/><path d="m6608.2,2944.6v-168.15h14.77v24.98c15.13-18.29,39.05-28.49,68.25-28.49,47.84,0,74.23,30.25,74.23,77.74v93.93h-14.77v-92.52c0-43.97-20.4-65.08-61.21-65.08-29.9,0-55.58,14.42-66.49,36.59v121.01h-14.77Z"/><path d="m6802.37,2776.45h22.87v-49.25h14.77v49.25h86.19v14.07h-86.19v93.22c0,32.72,13.72,52.06,43.62,52.06,16.53,0,28.49-4.57,40.1-10.91l6.68,11.96c-14.07,7.74-27.79,13.02-46.79,13.02-39.75,0-58.4-24.98-58.4-66.13v-93.22h-22.87v-14.07Z"/><path d="m7108.07,2900.63l10.91,8.79c-15.13,23.92-41.51,40.45-74.23,40.45-54.53,0-88.3-39.75-88.3-88.65s37.99-88.3,84.78-88.3,84.78,39.75,84.78,88.3c0,4.92-.7,10.55-.7,10.55h-153.02c4.57,35.88,32.36,64.02,72.47,64.02,29.55,0,50.66-15.13,63.32-35.18Zm-136.49-42.92h139.66c-1.76-38.7-32.36-70.71-70-70.71s-67.89,32.01-69.65,70.71Z"/><path d="m7170.68,2944.6v-168.15h14.78v22.87c13.02-16.89,33.42-26.38,57.69-26.38,41.86,0,66.49,24.62,70.36,63.67h-15.13c-3.87-33.07-22.87-48.9-56.99-48.9-24.62,0-46.44,13.72-55.93,34.83v122.07h-14.78Z"/><path d="m7358.18,2944.6v-168.15h14.77v24.98c15.13-18.29,39.05-28.49,68.25-28.49,47.84,0,74.23,30.25,74.23,77.74v93.93h-14.77v-92.52c0-43.97-20.4-65.08-61.21-65.08-29.9,0-55.58,14.42-66.49,36.59v121.01h-14.77Z"/><path d="m7709.6,2944.6v-22.16c-14.07,17.59-36.23,27.44-62.97,27.44-47.84,0-86.54-39.75-86.54-88.65s39.75-88.3,86.54-88.3c26.74,0,48.9,9.85,62.97,27.44v-23.92h14.77v168.15h-14.77Zm0-44.68v-76.69c-10.55-21.81-35.18-36.23-62.97-36.23-39.05,0-71.41,33.77-71.41,74.23s32.36,74.58,71.41,74.58c27.79,0,52.42-14.42,62.97-35.88Z"/><path d="m7761.31,2776.45h22.87v-49.25h14.77v49.25h86.19v14.07h-86.19v93.22c0,32.72,13.72,52.06,43.62,52.06,16.53,0,28.49-4.57,40.1-10.91l6.68,11.96c-14.07,7.74-27.79,13.02-46.79,13.02-39.75,0-58.4-24.98-58.4-66.13v-93.22h-22.87v-14.07Z"/><path d="m7939.66,2713.13c8.44,0,15.48,7.04,15.48,15.48s-7.04,15.48-15.48,15.48-15.48-7.04-15.48-15.48,7.04-15.48,15.48-15.48Zm37.64,233.93c-28.49,0-45.03-22.87-45.03-55.58v-115.03h14.77v115.03c0,24.98,10.55,41.51,30.25,41.51v14.07Z"/><path d="m8090.92,2949.88c-48.55,0-88.3-39.75-88.3-88.65s39.75-88.3,88.3-88.3,88.65,39.75,88.65,88.3-39.75,88.65-88.65,88.65Zm0-162.87c-39.75,0-73.17,33.77-73.17,74.23s33.42,74.58,73.17,74.58,73.52-33.77,73.52-74.58-33.42-74.23-73.52-74.23Z"/><path d="m8224.24,2944.6v-168.15h14.78v24.98c15.13-18.29,39.05-28.49,68.24-28.49,47.84,0,74.23,30.25,74.23,77.74v93.93h-14.77v-92.52c0-43.97-20.4-65.08-61.21-65.08-29.9,0-55.58,14.42-66.49,36.59v121.01h-14.78Z"/><path d="m8575.67,2944.6v-22.16c-14.07,17.59-36.23,27.44-62.97,27.44-47.84,0-86.54-39.75-86.54-88.65s39.75-88.3,86.54-88.3c26.74,0,48.9,9.85,62.97,27.44v-23.92h14.77v168.15h-14.77Zm0-44.68v-76.69c-10.55-21.81-35.18-36.23-62.97-36.23-39.05,0-71.41,33.77-71.41,74.23s32.36,74.58,71.41,74.58c27.79,0,52.42-14.42,62.97-35.88Z"/><path d="m8646.72,2716.65h14.77v174.83c0,24.98,10.55,41.51,30.25,41.51v14.07c-28.49,0-45.03-22.87-45.03-55.58v-174.83Z"/><path d="m9017.13,2921.39l52.06-207.9,13.72,3.52-56.64,231.12h-9.5l-58.04-98.15-58.04,98.15h-9.5l-56.64-231.12,13.72-3.52,51.71,207.9,58.75-100.61,58.4,100.61Z"/><path d="m9193.02,2949.88c-48.55,0-88.3-39.75-88.3-88.65s39.75-88.3,88.3-88.3,88.65,39.75,88.65,88.3-39.75,88.65-88.65,88.65Zm0-162.87c-39.75,0-73.17,33.77-73.17,74.23s33.42,74.58,73.17,74.58,73.52-33.77,73.52-74.58-33.42-74.23-73.52-74.23Z"/><path d="m9326.34,2944.6v-168.15h14.77v24.98c15.13-18.29,39.05-28.49,68.25-28.49,34.47,0,58.04,15.83,68.25,42.92,12.66-27.44,39.75-42.92,74.23-42.92,47.84,0,74.23,30.25,74.23,77.74v93.93h-14.78v-92.52c0-43.97-20.4-65.08-61.21-65.08-32.01,0-66.49,19-66.49,67.19v90.41h-14.77v-92.52c0-43.97-20.4-65.08-61.21-65.08-29.9,0-55.58,14.42-66.49,36.59v121.01h-14.77Z"/><path d="m9822.34,2900.63l10.91,8.79c-15.13,23.92-41.51,40.45-74.23,40.45-54.53,0-88.3-39.75-88.3-88.65s37.99-88.3,84.78-88.3,84.78,39.75,84.78,88.3c0,4.92-.7,10.55-.7,10.55h-153.02c4.57,35.88,32.36,64.02,72.47,64.02,29.55,0,50.66-15.13,63.32-35.18Zm-136.49-42.92h139.66c-1.76-38.7-32.36-70.71-70-70.71s-67.89,32.01-69.65,70.71Z"/><path d="m9884.95,2944.6v-168.15h14.77v24.98c15.13-18.29,39.05-28.49,68.25-28.49,47.84,0,74.23,30.25,74.23,77.74v93.93h-14.77v-92.52c0-43.97-20.4-65.08-61.21-65.08-29.9,0-55.58,14.42-66.49,36.59v121.01h-14.77Z"/><path d="m10115.36,2716.65h14.07v62.27h-14.07v-62.27Z"/><path d="m10206.47,2916.46c18.29,13.37,43.62,19.35,66.84,19.35,20.05,0,57.34-6.33,57.34-33.42,0-23.22-29.2-28.49-58.04-34.12-34.47-6.33-68.95-13.37-68.95-47.84s39.05-47.49,69.65-47.49c23.57,0,46.08,5.28,61.91,20.4l-9.85,10.55c-13.02-12.31-32.01-16.89-52.06-16.89-23.92,0-54.53,8.09-54.53,33.42,0,23.22,28.14,27.79,56.64,33.07,34.83,6.33,70.36,14.07,70.36,48.9,0,38.34-47.14,47.49-72.47,47.49s-54.17-7.39-74.58-21.46l7.74-11.96Z"/><path d="m10611.36,2944.6h-112.92v-227.95h112.92c64.38,0,116.79,48.9,116.79,113.98s-52.41,113.98-116.79,113.98Zm0-213.88h-98.15v199.81h98.15c55.93,0,101.66-43.62,101.66-99.91s-45.38-99.91-101.66-99.91Z"/><path d="m10915.29,2944.6v-22.16c-14.07,17.59-36.23,27.44-62.97,27.44-47.84,0-86.54-39.75-86.54-88.65s39.75-88.3,86.54-88.3c26.73,0,48.9,9.85,62.97,27.44v-23.92h14.77v168.15h-14.77Zm0-44.68v-76.69c-10.55-21.81-35.18-36.23-62.97-36.23-39.05,0-71.41,33.77-71.41,74.23s32.36,74.58,71.41,74.58c27.79,0,52.41-14.42,62.97-35.88Z"/><path d="m10983.53,2772.93l69.65,154.78,70.71-154.78,12.66,5.98-83.37,182.22c-11.61,25.68-28.85,45.73-55.23,45.73v-14.07c19.35,0,32.72-16.89,42.21-37.29l5.28-11.61-74.93-164.98,13.02-5.98Z"/></g><g><path class="cls-4" d="m7583.98,2483.2l-19.63,91.08c-2.18,8.18-8.73,12.54-18,12.54h-15.82c-17.45,0-20.18-14.73-17.45-25.09l16.91-78.54h-42.54l-20.18,91.08c-2.18,8.18-8.73,12.54-17.45,12.54h-16.36c-17.45,0-20.18-14.73-17.45-25.09l16.91-78.54h-17.45c-12,0-19.09-7.09-19.09-19.09v-15.27c0-12,7.09-19.09,19.09-19.09h28.91l18-80.72h-23.45c-12,0-19.09-7.09-19.09-19.09v-15.27c0-12,7.09-19.09,19.09-19.09h34.91l20.18-91.08c2.18-8.18,8.73-12.54,17.45-12.54h16.36c17.45,0,20.18,14.73,17.45,25.09l-17.45,78.54h43.09l19.64-91.08c2.73-8.18,9.27-12.54,18-12.54h15.82c17.45,0,20.73,14.73,18,25.09l-17.45,78.54h18c12,0,19.09,7.09,19.09,19.09v15.27c0,12-7.09,19.09-19.09,19.09h-29.45l-18,80.72h24c12,0,19.09,7.09,19.09,19.09v15.27c0,12-7.09,19.09-19.09,19.09h-35.45Zm-85.63-53.45h43.09l17.45-80.72h-42.54l-18,80.72Z"/><path class="cls-4" d="m7835.41,2191.95c12,0,19.09,6.54,19.09,18.54v15.82c0,12-7.09,19.09-19.09,19.09h-82.36v117.26h61.63c12,0,19.09,6.54,19.09,18.54v15.82c0,12-7.09,19.09-19.09,19.09h-61.63v117.26h82.36c12,0,19.09,6.54,19.09,18.54v15.82c0,12-7.09,19.09-19.09,19.09h-132.53c-12,0-19.09-7.09-19.09-19.09v-357.24c0-12,7.09-18.54,19.09-18.54h132.53Z"/><path class="cls-4" d="m8041.57,2299.94c17.45-15.82,39.82-24.54,63.27-24.54,26.18,0,49.09,16.91,49.09,57.27v235.61c0,11.45-7.09,18.54-19.09,18.54h-24c-12,0-19.09-7.09-19.09-18.54v-217.07c0-16.91-6.55-24-20.73-24s-22.36,7.64-22.36,25.09v215.98c0,11.45-6.55,18.54-18.55,18.54h-24.54c-12,0-18.54-7.09-18.54-18.54v-217.07c0-16.91-6.55-24-21.27-24s-21.81,7.64-21.81,25.09v215.98c0,11.45-7.09,18.54-19.09,18.54h-24c-12,0-19.09-7.09-19.09-18.54v-271.61c0-12,7.09-18.54,19.09-18.54h24c12,0,19.09,6.54,19.09,18.54v2.73c15.27-15.27,36.54-24,55.63-24,17.45,0,33.27,7.64,42,24.54Z"/><path class="cls-4" d="m8197.56,2169.04c0-12,7.09-18.54,19.09-18.54h24c12,0,19.09,6.54,19.09,18.54v130.35c15.27-15.27,36.54-24,55.63-24,26.72,0,49.09,16.91,49.09,57.27v199.62c0,40.36-22.36,57.27-49.09,57.27-19.09,0-40.36-8.73-55.63-24v2.73c0,11.45-7.09,18.54-19.09,18.54h-24c-12,0-19.09-7.09-19.09-18.54v-399.24Zm105.26,182.16c0-16.91-6.55-24-21.27-24s-21.81,7.64-21.81,25.09v160.35c0,17.45,7.09,24.54,21.81,24.54s21.27-6.54,21.27-24v-161.99Z"/><path class="cls-4" d="m8574.97,2401.93c0,11.45-6.55,18.54-18.55,18.54h-24.54c-12,0-18.54-7.09-18.54-18.54v-50.72c0-16.91-6.55-24-21.27-24s-21.81,7.64-21.81,25.09v215.98c0,11.45-7.09,18.54-19.09,18.54h-24c-12,0-19.09-7.09-19.09-18.54v-271.61c0-12,7.09-18.54,19.09-18.54h24c12,0,19.09,6.54,19.09,18.54v2.73c15.27-15.27,36.54-24,55.63-24,26.72,0,49.09,16.91,49.09,57.27v69.27Z"/><path class="cls-4" d="m8712.96,2406.29v-58.9c0-17.45-7.09-24-21.82-24s-21.27,6.54-21.27,24v12.54c0,12-7.09,18.54-19.09,18.54h-24c-12,0-19.09-6.54-19.09-18.54v-14.18c0-47.45,26.72-70.36,83.45-70.36s83.45,22.91,83.45,70.36v222.52c0,11.45-6.55,18.54-18.54,18.54h-24.54c-12,0-18.54-7.09-18.54-18.54v-2.73c-15.82,15.27-37.09,24-56.18,24-26.72,0-49.09-16.91-49.09-57.27v-55.63c0-47.45,26.72-70.36,83.45-70.36h21.82Zm-21.82,46.36c-14.18,0-21.27,7.09-21.27,24v36.54c0,17.45,6,24,20.72,24s22.36-7.09,22.36-24.54v-59.99h-21.82Z"/><path class="cls-4" d="m8985.11,2384.48c0,12-6.55,18.54-18.54,18.54h-24.54c-12,0-18.54-6.54-18.54-18.54v-37.09c0-17.45-7.09-24-21.82-24s-21.27,6.54-21.27,24v170.17c0,16.91,7.09,24,21.27,24s21.82-7.09,21.82-24v-37.09c0-12,6.55-19.09,18.54-19.09h24.54c12,0,18.54,7.09,18.54,19.09v38.72c0,48-26.72,70.36-83.45,70.36s-83.45-22.91-83.45-70.9v-172.89c0-47.45,26.72-70.36,83.45-70.36s83.45,22.91,83.45,70.36v38.72Z"/><path class="cls-4" d="m9195.63,2433.56c0,13.64-8.18,21.82-21.82,21.82h-82.9v62.18c0,16.91,7.09,24,21.27,24s21.82-7.09,21.82-24v-11.45c0-12,6.55-18.54,18.54-18.54h24.54c12,0,18.54,6.54,18.54,18.54v13.09c0,48-26.72,70.36-83.45,70.36s-83.45-22.91-83.45-70.9v-172.89c0-47.45,26.72-70.36,83.45-70.36s83.45,22.91,83.45,70.36v87.81Zm-104.72-24.54h43.09v-61.63c0-17.45-7.09-24-21.82-24s-21.27,6.54-21.27,24v61.63Z"/><path class="cls-4" d="m9390.88,2191.95c12,0,19.09,6.54,19.09,18.54v15.82c0,12-7.09,19.09-19.09,19.09h-82.36v117.26h61.63c12,0,19.09,6.54,19.09,18.54v15.82c0,12-7.09,19.09-19.09,19.09h-61.63v117.26h82.36c12,0,19.09,6.54,19.09,18.54v15.82c0,12-7.09,19.09-19.09,19.09h-132.53c-12,0-19.09-7.09-19.09-19.09v-357.24c0-12,7.09-18.54,19.09-18.54h132.53Z"/><path class="cls-4" d="m9604.14,2677.36c0,12-6.55,18.54-18.54,18.54h-24.54c-12,0-18.54-6.54-18.54-18.54v-111.81c-15.82,15.27-37.09,24-56.18,24-26.72,0-49.08-16.91-49.08-57.27v-199.62c0-40.36,22.36-57.27,49.08-57.27,19.09,0,40.36,8.73,56.18,24v-2.73c0-12,6.54-18.54,18.54-18.54h24.54c12,0,18.54,6.54,18.54,18.54v380.69Zm-104.72-164.17c0,17.45,6,24,20.72,24s22.36-7.09,22.36-24.54v-160.35c0-17.45-7.64-25.09-22.36-25.09s-20.72,7.09-20.72,24v161.99Z"/><path class="cls-4" d="m9647.76,2296.67c0-12,7.09-18.54,19.09-18.54h24c12,0,19.09,6.54,19.09,18.54v216.53c0,17.45,6,24,20.72,24s22.36-7.09,22.36-24.54v-215.98c0-12,6.54-18.54,18.54-18.54h24.54c12,0,18.54,6.54,18.54,18.54v271.61c0,11.45-6.55,18.54-18.54,18.54h-24.54c-12,0-18.54-7.09-18.54-18.54v-2.73c-15.82,15.27-37.09,24-56.18,24-26.72,0-49.08-16.91-49.08-57.27v-235.61Z"/><path class="cls-4" d="m9889.37,2169.59c21.27,0,36.54,15.27,36.54,36.54s-15.27,36.54-36.54,36.54-36.54-14.73-36.54-36.54,14.72-36.54,36.54-36.54Zm31.09,398.14c0,12-7.09,19.09-19.09,19.09h-24c-12,0-19.09-7.09-19.09-19.09v-271.07c0-12,7.09-18.54,19.09-18.54h24c12,0,19.09,6.54,19.09,18.54v271.07Z"/><path class="cls-4" d="m9980.45,2278.12v-67.63c0-12,7.09-18.54,19.09-18.54h24c12,0,19.09,6.54,19.09,18.54v67.63h27.27c12,0,19.09,6.54,19.09,18.54v10.36c0,12-7.09,19.09-19.09,19.09h-27.27v186.53c0,17.45,6,26.18,23.45,26.18h14.73c12,0,19.09,6.54,19.09,18.54v10.36c0,12-7.09,19.09-19.09,19.09h-14.73c-58.9,0-85.63-23.45-85.63-72.54v-188.16h-16.36c-12,0-19.09-7.09-19.09-19.09v-10.36c0-12,7.09-18.54,19.09-18.54h16.36Z"/><path class="cls-4" d="m10166.43,2294.49l16.36,142.35,8.18,100.9h4.36l8.18-100.9,16.36-142.35c1.09-10.36,7.09-16.36,19.09-16.36h22.91c10.91,0,21.27,6,18.54,22.91l-57.27,378.51c-1.64,9.82-7.09,16.36-19.09,16.36h-22.91c-10.91,0-21.27-6-18.54-22.91l13.64-86.17h-10.36c-12,0-17.45-6.54-19.09-17.45l-40.91-268.34c-2.73-16.91,7.64-22.91,18-22.91h22.91c12,0,18.54,6,19.64,16.36Z"/></g><g><g><path class="cls-5" d="m8579.99,2092.87s100-85.63,134.45-119.29c34.45-33.66,114.19-104.63,145.05-131.04,30.86-26.41,93.58-69.97,117.26-81.87,23.68-11.91,93.72-33.79,114.07-53.45,20.35-19.66,58.04-50.43,69.98-63.06,66.95-70.84,31.11-151.87,22.44-162.79-8.66-10.93-58.12,22.47-84.88,34.71-26.77,12.24-73.21,27.21-83.72,33.96s-44.61,20.4-48.45,19.56c-3.83-.84,143.43-71.6,102.43-82.6-22.04-5.91-48,17-72,28-14.91,6.83-59,25-73.27,39.24-15.27,15.23-44.19,73.71-51.95,100.13-7.77,26.42-27.46,52.25-70.83,89.99-43.37,37.74-192.73,128.67-215.33,144.83-22.6,16.16-86.99,67.39-86.99,67.39l81.73,136.31Z"/><path class="cls-6" d="m8364.63,2001.93c4.21-.94,220.48-175.54,255.59-139.97,35.11,35.58,115.16,101.11,98.3,131.07-16.85,29.96-168.52,140.43-168.52,140.43l-185.37-131.54Z"/></g><g><path class="cls-3" d="m9097.23,2092.87s-100-85.63-134.45-119.29c-34.45-33.66-114.19-104.63-145.05-131.04-30.86-26.41-93.58-69.97-117.26-81.87-23.68-11.91-93.72-33.79-114.07-53.45-20.35-19.66-58.04-50.43-69.98-63.06-66.95-70.84-31.11-151.87-22.44-162.79,8.66-10.93,58.12,22.47,84.88,34.71,26.77,12.24,73.21,27.21,83.72,33.96s44.61,20.4,48.45,19.56-143.43-71.6-102.43-82.6c22.04-5.91,48,17,72,28,14.91,6.83,59,25,73.27,39.24,15.27,15.23,44.19,73.71,51.95,100.13,7.77,26.42,27.46,52.25,70.83,89.99,43.37,37.74,192.73,128.67,215.33,144.83,22.6,16.16,86.99,67.39,86.99,67.39l-81.73,136.31Z"/><path class="cls-4" d="m9312.59,2001.93c-4.21-.94-220.48-175.54-255.59-139.97-35.11,35.58-115.16,101.11-98.3,131.07,16.85,29.96,168.52,140.43,168.52,140.43l185.37-131.54Z"/></g></g></g></svg>